<?xml version="1.0" standalone="no"?>
<!DOCTYPE svg PUBLIC "-//W3C//DTD SVG 1.1//EN" "http://www.w3.org/Graphics/SVG/1.1/DTD/svg11.dtd" >
<svg xmlns="http://www.w3.org/2000/svg">
<metadata>
This is a custom SVG webfont generated by Font Squirrel.
Copyright   : Copyright c 2010 by PJ Onori All rights reserved
Designer    : PJ Onori
Foundry     : PJ Onori
Foundry URL : httpsomerandomdudecom
</metadata>
<defs>
<font id="webfontIHpVguED" horiz-adv-x="1551" >
<font-face units-per-em="2048" ascent="1638" descent="-410" />
<missing-glyph horiz-adv-x="512" />
<glyph unicode=" "  horiz-adv-x="512" />
<glyph unicode="&#x09;" horiz-adv-x="512" />
<glyph unicode="&#xa0;" horiz-adv-x="512" />
<glyph unicode="!" horiz-adv-x="1502" d="M687 1372l686 -686h-172v-686h-1029v686h-172zM1030 171v615l-343 243l-344 -243v-615h258v258h171v-258h258z" />
<glyph unicode="&#x22;" horiz-adv-x="1669" d="M856 180v514q0 106 40.5 199.5t110 163t163 110t200.5 40.5v-171q-71 0 -133.5 -27t-109 -73.5t-73.5 -108.5t-27 -133h343v-514h-514zM0 180v514q0 106 40.5 199.5t110 163t163 110t200.5 40.5v-171q-71 0 -133.5 -27t-109 -73.5t-73.5 -108.5t-27 -133h343v-514h-514z " />
<glyph unicode="#" d="M0 685q0 95 24.5 182.5t69 163.5t107 138.5t139 107t163.5 69t182 24.5q94 0 181.5 -24.5t164 -69t139 -107t107 -138.5t69 -163.5t24.5 -182.5q0 -142 -54 -266.5t-147 -217.5t-217.5 -147t-266.5 -54t-266.5 54t-217.5 147t-147 217.5t-54 266.5zM685 1027l-341 -341 h255v-344h171v344h257z" />
<glyph unicode="$" d="M686 1372q142 0 267 -54t218 -147t147 -218t54 -267t-54 -267t-147 -218t-218 -147t-267 -54t-267 54t-218 147t-147 218t-54 267t54 267t147 218t218 147t267 54zM1029 686l-342 342v-256h-344v-172h344v-257z" />
<glyph unicode="%" d="M1372 686q0 -142 -54 -267t-147 -218t-218 -147t-267 -54t-267 54t-218 147t-147 218t-54 267t54 267t147 218t218 147t267 54t267 -54t218 -147t147 -218t54 -267zM686 343l342 342h-256v344h-172v-344h-257z" />
<glyph unicode="&#x26;" d="M1370 685q0 -94 -24.5 -181.5t-69 -164t-107 -139t-138.5 -107t-163.5 -69t-182.5 -24.5q-142 0 -266.5 54t-217.5 147t-147 217.5t-54 266.5t54 266.5t147 217.5t217.5 147t266.5 54q95 0 182.5 -24.5t163.5 -69t138.5 -107t107 -139t69 -164t24.5 -181.5zM943 599v-85 l171 171l-171 171v-86h-514v86l-171 -171l171 -171v85h514z" />
<glyph unicode="'" horiz-adv-x="1669" d="M856 180v514l514 513v-1027h-514zM0 180v514l514 513v-1027h-514z" />
<glyph unicode="(" d="M686 1372q142 0 267 -54t218 -147t147 -218t54 -267t-54 -267t-147 -218t-218 -147t-267 -54t-267 54t-218 147t-147 218t-54 267t54 267t147 218t218 147t267 54zM1115 686l-172 172v-86h-171v172h85l-171 171l-172 -171h86v-172h-171v86l-172 -172l172 -171v86h171 v-172h-86l172 -172l171 172h-85v172h171v-86z" />
<glyph unicode=")" horiz-adv-x="1542" d="M1372 172l-172 -172l-600 601l-257 -257l-343 1029l1029 -343l-257 -258z" />
<glyph unicode="*" d="M685 1370q94 0 181.5 -24.5t164 -69t139 -107t107 -138.5t69 -163.5t24.5 -182.5q0 -142 -54 -266.5t-147 -217.5t-217.5 -147t-266.5 -54t-266.5 54t-217.5 147t-147 217.5t-54 266.5q0 95 24.5 182.5t69 163.5t107 138.5t139 107t163.5 69t182 24.5zM770 943h86 l-171 171l-171 -171h85v-514h-85l171 -171l171 171h-86v514z" />
<glyph unicode="+" horiz-adv-x="1542" d="M1370 514h-514v-514h-342v514h-514v342h514v514h342v-514h514v-342z" />
<glyph unicode="," horiz-adv-x="1669" d="M1286 644q36 0 61 -25t25 -61v-343q0 -35 -25 -60t-61 -25h-257v514v172q0 71 -27 133.5t-73.5 109t-109 73.5t-133.5 27t-133.5 -27t-109 -73.5t-73.5 -109t-27 -133.5v-172v-514h-257q-36 0 -61 25t-25 60v343q0 36 25 61t61 25h85v172q0 106 40.5 200t110.5 163.5 t163.5 110t200.5 40.5q106 0 200 -40.5t163.5 -110t110 -163.5t40.5 -200v-172h86z" />
<glyph unicode="-" horiz-adv-x="1586" d="M0 560v343h1372v-343h-1372z" />
<glyph unicode="." horiz-adv-x="1576" d="M1370 1199h-1370v171h1370v-171zM856 856h-856v171h856v-171zM1370 510h-1370v171h1370v-171zM171 85q0 -35 -25 -60t-61 -25q-35 0 -60 25t-25 60q0 36 25 61t60 25q36 0 61 -25t25 -61zM514 85q0 -18 -7 -33.5t-18.5 -27t-27.5 -18t-34 -6.5q-17 0 -32.5 6.5t-27 18 t-18.5 27t-7 33.5t7 33.5t18.5 27.5t27 18.5t32.5 6.5q36 0 61.5 -25t25.5 -61zM856 85q0 -35 -25 -60t-61 -25q-35 0 -60 25t-25 60q0 36 25 61t60 25q36 0 61 -25t25 -61z" />
<glyph unicode="/" horiz-adv-x="1556" d="M1344 1344q26 -25 26 -60.5t-26 -60.5l-174 -174q42 -63 59 -134.5t10 -143t-38 -139t-86 -122.5l-256 -257q-63 -63 -141.5 -94.5t-161.5 -31.5q-62 0 -121.5 18.5t-113.5 53.5l-176 -174q-12 -13 -27.5 -19t-32.5 -6t-32.5 6t-27.5 19q-25 25 -25 60t25 60l174 176 q-41 62 -58.5 133t-10.5 142.5t38 139.5t86 123l257 256q63 63 141 94.5t161 31.5q62 0 122.5 -17.5t114.5 -53.5l174 174q25 26 60 26t60 -26zM1070 812q0 59 -26 111l-130 -130q-12 -14 -27.5 -20t-32.5 -6t-32.5 6t-28.5 20q-26 25 -26 60.5t26 60.5l131 130 q-26 12 -54 19t-57 7q-52 0 -98.5 -19.5t-82.5 -55.5l-258 -257q-36 -37 -55.5 -83.5t-19.5 -98.5q0 -59 26 -109l129 127q25 25 59.5 25t60.5 -25q25 -26 25 -61t-25 -60l-127 -128q52 -26 109 -26q52 0 98.5 19.5t84.5 55.5l256 258q36 36 55.5 82.5t19.5 97.5z" />
<glyph unicode="0" horiz-adv-x="1055" d="M429 1201q-53 0 -100 -20.5t-82 -55.5t-55 -82t-20 -100q0 -61 26.5 -114.5t75.5 -90.5q73 -55 106 -113t43 -109h12q5 25 15.5 53t28.5 56.5t44 57t62 55.5q49 37 75.5 90.5t26.5 114.5q0 53 -20.5 100t-55.5 82t-82 55.5t-100 20.5zM429 1373q89 0 167 -34t136.5 -92.5 t92 -136.5t33.5 -167q0 -106 -46 -194.5t-124 -147.5q-36 -27 -61.5 -63t-25.5 -84v-110h-343v110q0 48 -25.5 84t-61.5 63q-78 59 -124.5 147.5t-46.5 194.5q0 89 34 167t92 136.5t136 92.5t167 34zM258 172h343v-172h-343v172z" />
<glyph unicode="1" horiz-adv-x="1586" d="M1373 343h-343v-343h-1030v1030h343v343h1030v-1030zM858 343h-515v343h-171v-514h686v171zM1201 1030h-686v-515h686v515z" />
<glyph unicode="2" horiz-adv-x="1556" d="M685 856q36 0 67 -13.5t54 -36.5t36.5 -54t13.5 -67t-13.5 -67t-36.5 -54t-54 -36.5t-67 -13.5t-67 13.5t-54 36.5t-36.5 54t-13.5 67t13.5 67t36.5 54t54 36.5t67 13.5zM1222 1104q69 -87 108.5 -193t39.5 -226q0 -142 -54 -266.5t-147 -217.5t-217.5 -147t-266.5 -54 t-266.5 54t-217.5 147t-147 217.5t-54 266.5q0 119 38.5 224.5t105.5 193.5q11 -8 23.5 -13.5t27.5 -5.5q18 0 33.5 6.5t27 18.5t18.5 27.5t7 33.5q0 14 -5.5 27t-13.5 24q72 57 157.5 93.5t180.5 48.5q3 -33 27 -55.5t58 -22.5q33 0 56.5 22.5t27.5 54.5q95 -11 179.5 -47 t155.5 -92q-9 -10 -14.5 -23.5t-5.5 -29.5q0 -36 25 -61t60 -25q15 0 28.5 5.5t24.5 14.5zM685 342q71 0 133 27t108.5 73.5t73.5 109t27 133.5q0 72 -26.5 134t-74.5 108l-241 243l-242 -243q-47 -46 -74 -108t-27 -134q0 -71 27 -133.5t73.5 -109t109 -73.5t133.5 -27z " />
<glyph unicode="3" horiz-adv-x="1537" d="M685 1370l685 -685l-242 -242l-272 271v-714h-342v714l-100 -100l-87 -86l-85 -85l-242 242z" />
<glyph unicode="4" horiz-adv-x="1537" d="M1372 686l-685 -686l-243 243l270 271h-714v344h714l-99 100l-86 86l-85 85l243 243z" />
<glyph unicode="5" horiz-adv-x="1537" d="M686 0l-686 686l243 243l271 -271v714h344v-714l186 186l85 85l243 -243z" />
<glyph unicode="6" horiz-adv-x="1561" d="M0 685l684 685l242 -242l-270 -272h714v-344h-714l185 -185l85 -85l-242 -242z" />
<glyph unicode="7" horiz-adv-x="1546" d="M514 601h-258v-171l-256 256l256 258v-172h258v-171zM856 772h256v172l258 -258l-258 -256v171h-256v171z" />
<glyph unicode="8" horiz-adv-x="702" d="M343 514v-257h171l-257 -257l-257 257h171v257h172zM171 857v258h-171l257 257l257 -257h-171v-258h-172z" />
<glyph unicode="9" horiz-adv-x="1522" d="M772 514v-257h172l-258 -257l-257 257h172v257h171zM601 857v258h-172l257 257l258 -257h-172v-258h-171zM515 600h-258v-171l-257 257l257 257v-171h258v-172zM858 772h257v171l257 -257l-257 -257v171h-257v172z" />
<glyph unicode=":" horiz-adv-x="1669" d="M1370 514v-514h-514l196 196l-196 197l121 121l197 -196zM318 1174l193 -194l-121 -122l-194 194l-196 -196v514h514zM318 196l196 -196h-514v514l196 -196l197 196l121 -121zM1370 856l-196 196l-194 -194l-122 122l194 194l-196 196h514v-514z" />
<glyph unicode=";" horiz-adv-x="1566" d="M856 0v514h514l-196 -196l196 -196l-121 -122l-195 197zM197 1054l-194 194l120 121l195 -195l196 196v-514h-514zM197 318l-197 196h514v-514l-196 197l-196 -197l-122 122zM856 1370l198 -196l194 195l121 -121l-195 -194l196 -198h-514v514z" />
<glyph unicode="&#x3c;" horiz-adv-x="1586" d="M858 343h-86v-257q0 -36 -25 -61t-60 -25q-36 0 -61 25t-25 61v257h-86v171h86v772q0 36 25 61t61 25q35 0 60 -25t25 -61v-772h86v-171zM1373 857h-86v-771q0 -36 -25 -61t-61 -25q-18 0 -33.5 6.5t-27 18.5t-18.5 27.5t-7 33.5v771h-85v172h85v257q0 18 7 33.5 t18.5 27.5t27 18.5t33.5 6.5q36 0 61 -25t25 -61v-257h86v-172zM343 686h-85v-600q0 -36 -25 -61t-61 -25q-18 0 -33.5 6.5t-27 18.5t-18.5 27.5t-7 33.5v600h-86v171h86v429q0 18 7 33.5t18.5 27.5t27 18.5t33.5 6.5q36 0 61 -25t25 -61v-429h85v-171z" />
<glyph unicode="=" d="M686 1372q142 0 267 -54t218 -147t147 -218t54 -267t-54 -267t-147 -218t-218 -147t-267 -54t-267 54t-218 147t-147 218t-54 267t54 267t147 218t218 147t267 54zM1029 772h-257v257h-172v-257h-257v-172h257v-257h172v257h257v172z" />
<glyph unicode="&#x3e;" horiz-adv-x="1581" d="M1370 1199h-1370v171h1370v-171zM856 856h-856v171h856v-171zM1370 342h-1370v172h1370v-172zM1027 0h-1027v171h1027v-171zM1370 86q0 -36 -25 -61t-60 -25q-36 0 -61 25t-25 61q0 35 25 60t61 25q35 0 60 -25t25 -60z" />
<glyph unicode="?" horiz-adv-x="1576" d="M342 342v343l172 171l171 -171l342 342l343 -342v-343h-1028zM1370 171l-171 -171h-1028h-171v171v1028l171 171v-1199h1199z" />
<glyph unicode="@" horiz-adv-x="1546" d="M1029 343q-42 0 -76.5 19.5t-58.5 51.5q-44 -34 -96 -53t-112 -19q-71 0 -133.5 27t-109 73.5t-73.5 109t-27 133.5t27 133.5t73.5 109t109 73.5t133.5 27h343v-513h139l1 -2q15 41 23.5 84t8.5 89q0 106 -40.5 200t-110.5 164t-164 110.5t-200 40.5q-107 0 -200.5 -40.5 t-163.5 -110.5t-110.5 -164t-40.5 -200t40.5 -199.5t110.5 -163.5t163.5 -110.5t200.5 -40.5t200.5 40.5t163.5 110.5l121 -122q-94 -94 -218 -147.5t-267 -53.5q-95 0 -182.5 24.5t-164 69.5t-139 107.5t-107 138.5t-69 163.5t-24.5 182.5q0 142 54 267t147 218.5 t218 147.5t267 54t267 -54t218 -147.5t147 -218.5t54 -267q0 -94 -24 -180.5t-68 -162.5h-251zM857 856h-171q-35 0 -66.5 -13.5t-55 -37t-37 -54.5t-13.5 -66q0 -36 13.5 -67t37 -54.5t55 -37t66.5 -13.5t66 13.5t54.5 37t37 54.5t13.5 67v87v84z" />
<glyph unicode="A" horiz-adv-x="1591" d="M1026 1201h347v-172h-347h-172h-343h-171h-340v172h340v171h171v-171h343v171h172v-171zM1201 343h-1029v171h1029v-171zM1201 686h-1029v172h1029v-172zM1030 0h-858v171h1029z" />
<glyph unicode="B" horiz-adv-x="1707" />
<glyph unicode="E" horiz-adv-x="1502" d="M515 1029h342v-172h-342v172zM1371 856h-171v-856h-1028q-36 0 -67 13.5t-54.5 37t-37 54.5t-13.5 67v1029q0 36 13.5 67t37 54t54.5 36.5t67 13.5h1028v-172h173l-173 -173zM1029 1201h-686v-1029h686v1029z" />
<glyph unicode="H" horiz-adv-x="1707" />
<glyph unicode="J" horiz-adv-x="1605" d="M1111 847q52 -10 99.5 -33.5t82.5 -64t56 -99t21 -136.5q0 -93 -29.5 -158t-77.5 -106t-110 -60t-126 -19h-171q-35 0 -66.5 -13.5t-54.5 -36.5t-36.5 -54t-13.5 -67q-71 0 -133.5 27t-109 73.5t-73.5 108.5t-27 133v172q0 46 9 85h163q4 0 7 -1t8 -2q-15 -33 -15 -82 v-172q0 -42 18.5 -77.5t49.5 -58.5q47 63 118 99.5t156 36.5h171q43 0 72.5 10t48.5 25.5t29.5 34.5t15 38t5.5 36t1 28q0 17 -2 42t-14 50.5t-37.5 46t-71.5 28.5q17 38 27 79.5t10 86.5zM342 1199q-64 0 -99 -19.5t-51 -47t-18.5 -57t-2.5 -48.5q0 -16 2.5 -44.5 t18.5 -56.5t51 -49t99 -21h172q84 0 155 -37t119 -100q31 24 49.5 59.5t18.5 77.5v171q0 56 -18 90t-44 52t-55.5 24t-53.5 6h-343zM685 1370q64 0 125.5 -20.5t109.5 -62.5t77.5 -107t29.5 -153v-171q0 -71 -27 -133t-73.5 -108.5t-108.5 -73.5t-133 -27q0 35 -13.5 66 t-37 54.5t-54.5 37t-66 13.5h-172q-64 0 -125.5 19t-109.5 60t-77.5 106t-29.5 157q0 95 29.5 160.5t77.5 106t109.5 58.5t125.5 18h343z" />
<glyph unicode="L" horiz-adv-x="1325" d="M600 1370q88 0 166 -33.5t136 -92t91.5 -136.5t33.5 -167v-685q0 -53 -20 -99.5t-55 -81.5t-81.5 -55t-99.5 -20h-513q-54 0 -101 20t-82 55t-55 81.5t-20 99.5v600h171v85q0 89 34 167t92 136.5t136 92t167 33.5zM342 856h514v85q0 54 -20 101t-55 82t-81.5 55t-99.5 20 t-100 -20t-82 -55t-55.5 -82t-20.5 -101v-85zM771 171q18 0 33.5 7t27 18.5t18 27t6.5 32.5v429h-685v-429q0 -17 7 -32.5t18.5 -27t27.5 -18.5t34 -7h513zM600 427q0 -17 -6.5 -32.5t-18.5 -27t-27.5 -18.5t-33.5 -7t-33.5 7t-27 18.5t-18 27t-6.5 32.5q0 18 6.5 34 t18 27.5t27 18.5t33.5 7q36 0 61 -25.5t25 -61.5z" />
<glyph unicode="M" horiz-adv-x="1669" d="M1372 1209v-1029h-1372v1029h1372zM306 1037l319 -319q26 -25 61 -25t61 25l319 319h-760zM1200 351v578l-332 -332q-38 -38 -85 -57t-97 -19t-97 19t-85 57l-333 332v-578h1029z" />
<glyph unicode="P" horiz-adv-x="1586" d="M1272 1271q50 -50 75 -113.5t25 -129t-25 -129t-75 -113.5l-786 -786h-486l1 486l786 785q51 51 114 76t129 25t128.5 -25t113.5 -76zM1151 907l-243 243l-735 -735v-72h170v-172h72z" />
<glyph unicode="Q" horiz-adv-x="1596" d="M687 1037q-401 0 -488 -211q-19 -45 -25 -94q-3 -28 -3 -57q0 -21 2 -41q4 -50 15.5 -97.5t26.5 -89.5q36 25 72.5 40t81 23t100.5 10.5t132 2.5h568q13 38 22.5 83t9.5 88q0 42 -5 83.5t-23 79.5t-51.5 71t-90.5 57t-141.5 38t-202.5 14zM687 1209q86 0 170 -8.5 t160.5 -30t141.5 -58.5t112.5 -94t74.5 -137t27 -187q0 -65 -14 -126.5t-31 -109.5q-19 -56 -44 -107h-683q-64 0 -109 -1t-78.5 -5.5t-59 -15t-52 -29.5t-57.5 -48l-73 -72q-32 32 -66.5 93.5t-60.5 139.5t-39 167q-6 47 -6 93q0 43 6 85q11 89 51.5 170.5t120 144 t204.5 99.5t305 37z" />
<glyph unicode="V" horiz-adv-x="1581" d="M342 351q-71 0 -133 27t-108.5 73.5t-73.5 109t-27 133.5t27 133t73.5 108.5t108.5 73.5t133 27v-685zM514 1036l342 171v-1027l-342 171v685zM1370 607h-343v172h343v-172z" />
<glyph unicode="W" horiz-adv-x="1571" d="M1167 514q-4 -13 -9 -25l-10 -25l143 -142l-243 -243l-142 143q-13 -5 -25 -8l-25 -8v-206h-342v206l-25 8q-12 3 -25 8l-142 -143l-243 243l144 142q-6 13 -11 25t-9 25h-203v342h203q4 13 9 25t11 25l-144 142l243 243l142 -144q13 6 25 9l25 8v206h342v-206l25 -8 q12 -3 25 -9l142 144l243 -243l-143 -142l10 -25q5 -12 9 -25h203v-342h-203zM685 510q36 0 67 13.5t54 36.5t36.5 54t13.5 67q0 35 -13.5 66t-36.5 54.5t-54 37t-67 13.5t-67 -13.5t-54 -37t-36.5 -54.5t-13.5 -66q0 -36 13.5 -67t36.5 -54t54 -36.5t67 -13.5z" />
<glyph unicode="X" d="M686 1372q142 0 267 -54t218 -147t147 -218t54 -267t-54 -267t-147 -218t-218 -147t-267 -54t-267 54t-218 147t-147 218t-54 267t54 267t147 218t218 147t267 54zM807 686l218 218l-121 121l-218 -218l-218 218l-121 -121l218 -218l-218 -218l121 -122l218 219l218 -219 l121 122z" />
<glyph unicode="Y" d="M686 1373q142 0 267 -54t218 -147.5t147 -218.5t54 -267q0 -95 -24.5 -182.5t-69 -163.5t-107 -138.5t-139 -107.5t-164 -69.5t-182.5 -24.5t-182.5 24.5t-164 69.5t-139 107.5t-107 138.5t-69 163.5t-24.5 182.5q0 142 54 267t147 218.5t218 147.5t267 54zM1113 904 l-121 121l-412 -413l-195 195l-121 -121l316 -316z" />
<glyph unicode="Z" horiz-adv-x="972" d="M426 985q0 -17 -12 -29.5t-29 -12.5t-29 12.5t-12 29.5t12 29t29 12t29 -12t12 -29zM599 1370q36 0 61 -25t25 -61v-942q0 -71 -27 -133t-73.5 -108.5t-109 -73.5t-133.5 -27t-133 27t-108.5 73.5t-73.5 108.5t-27 133v942q0 36 25 61t60 25h514zM215 514q17 0 29 12 t12 29t-12 29t-29 12t-29 -12t-12 -29t12 -29t29 -12zM427 342q18 0 34 7t27.5 18.5t18.5 27t7 32.5q0 36 -25.5 61.5t-61.5 25.5q-17 0 -32.5 -7t-27 -18.5t-18.5 -27.5t-7 -34q0 -35 25 -60t60 -25zM514 1199h-343v-514h87q0 35 25 60t61 25t61 -25t25 -60h84v514z" />
<glyph unicode="[" horiz-adv-x="1360" d="M1023 1110q86 -86 131 -195t45 -230q0 -83 -21.5 -159.5t-60.5 -143t-93.5 -121.5t-121.5 -94t-143.5 -60.5t-158.5 -21.5v-85l-171 171l171 171v-86q88 0 166 34t136 92t91.5 136t33.5 167q0 87 -31.5 164.5t-92.5 138.5zM600 1027v85q-89 0 -167 -33.5t-136 -91.5 t-92 -136t-34 -166q0 -87 32.5 -164.5t93.5 -138.5l-120 -122q-86 86 -131.5 195t-45.5 230q0 82 21.5 158.5t60.5 143.5t94 121.5t121.5 93.5t143 60.5t159.5 21.5v86l171 -171z" />
<glyph unicode="\" horiz-adv-x="1055" d="M429 1200q-52 0 -99 -19t-83 -56q-37 -37 -56.5 -83.5t-19.5 -98.5q0 -51 19.5 -98t56.5 -83l19 -20q17 -17 42 -47t56.5 -72t64.5 -94q33 52 64.5 94t57 72t41.5 47l20 21q35 35 54.5 82t19.5 98q0 52 -19.5 98.5t-55.5 83.5q-37 37 -84 56t-98 19zM429 1372 q82 0 161 -31.5t142 -94.5t94 -142t31 -161t-31 -161t-94 -142q-85 -88 -152 -191q-29 -44 -56 -95.5t-48 -108.5t-34 -119t-13 -126q0 64 -13 126t-34.5 119t-49 108.5t-55.5 95.5q-67 103 -151 191q-63 63 -94.5 142t-31.5 161t31.5 161t94.5 142t141.5 94.5t161.5 31.5z M514 943q0 -18 -6.5 -33.5t-18 -27t-27 -18.5t-33.5 -7t-33.5 7t-27.5 18.5t-18.5 27t-6.5 33.5q0 36 25 61t61 25q35 0 60 -25t25 -61z" />
<glyph unicode="]" horiz-adv-x="1571" d="M253 980q-39 -62 -60 -132.5t-21 -145.5q0 -110 41.5 -206.5t113.5 -168.5t168 -113.5t206 -41.5q76 0 146.5 21.5t132.5 59.5q-144 14 -270.5 75.5t-223.5 158t-158.5 223t-74.5 270.5zM508 1373q-41 -71 -64 -150t-23 -166q0 -132 50 -247.5t136 -202t201.5 -136.5 t247.5 -50q88 0 167 23t149 64q-32 -110 -95.5 -203t-151.5 -160.5t-196 -106t-228 -38.5q-97 0 -186.5 25t-167.5 70.5t-142 110t-109.5 142.5t-70.5 167.5t-25 186.5q0 120 38 227.5t106 195.5t161 152t203 96z" />
<glyph unicode="^" d="M686 0q-95 0 -182.5 24.5t-164 69.5t-139 107.5t-107 138.5t-69 163.5t-24.5 182.5q0 142 54 267t147 218.5t218 147.5t267 54t267 -54t218 -147.5t147 -218.5t54 -267q0 -95 -24.5 -182.5t-69 -163.5t-107 -138.5t-139 -107.5t-164 -69.5t-182.5 -24.5zM343 686 l342 -341v256h344v171h-344v258z" />
<glyph unicode="_" d="M685 1370q142 0 266.5 -54t217.5 -147t147 -217.5t54 -266.5t-54 -266.5t-147 -217.5t-217.5 -147t-266.5 -54t-266.5 54t-217.5 147t-147 217.5t-54 266.5t54 266.5t147 217.5t217.5 147t266.5 54zM1027 770h-685v-171h685v171z" />
<glyph unicode="`" d="M687 1372q95 0 182.5 -24.5t163.5 -69t138.5 -107t107.5 -139t69.5 -164t24.5 -182.5t-24.5 -182.5t-69.5 -164t-107.5 -139t-138.5 -107t-164 -69t-182 -24.5q-142 0 -267 54t-218.5 147t-147.5 218t-54 267t54 267t147.5 218t218.5 147t267 54zM687 1200 q-107 0 -200.5 -40.5t-163.5 -110.5t-110.5 -163.5t-40.5 -199.5q0 -84 25.5 -159t70.5 -139l716 716q-63 45 -138 70.5t-159 25.5zM687 171q106 0 199.5 40.5t163.5 110.5t110.5 163.5t40.5 200.5q0 83 -25.5 158.5t-70.5 138.5l-716 -716q63 -45 138.5 -70.5t159.5 -25.5z " />
<glyph unicode="a" horiz-adv-x="1674" d="M1373 0h-1373v1201h172v-1029h1029v1029h172v-1201zM429 686h-171v172h171v-172zM772 686h-171v172h171v-172zM1115 686h-171v172h171v-172zM429 343h-171v172h171v-172zM772 343h-171v172h171v-172zM944 343v172h171zM343 1115v172q0 18 7 33.5t18.5 27t27 18t33.5 6.5 q36 0 61 -25t25 -60v-172q0 -18 -6.5 -33.5t-18.5 -27t-27.5 -18.5t-33.5 -7t-33.5 7t-27 18.5t-18.5 27t-7 33.5zM858 1115v172q0 35 25 60t61 25q18 0 33.5 -6.5t27 -18t18.5 -27t7 -33.5v-172q0 -18 -7 -33.5t-18.5 -27t-27 -18.5t-33.5 -7t-33.5 7t-27.5 18.5t-18.5 27 t-6.5 33.5z" />
<glyph unicode="b" horiz-adv-x="1561" d="M770 685l257 -171l-1027 -514l599 514l-257 171l1028 685z" />
<glyph unicode="c" d="M685 1199q-107 0 -200.5 -40.5t-163 -110t-110 -163.5t-40.5 -200q0 -107 40.5 -200.5t110 -163t163 -110t200.5 -40.5q106 0 200 40.5t163.5 110t110 163t40.5 200.5q0 106 -40.5 200t-110 163.5t-163.5 110t-200 40.5zM685 1370q142 0 266.5 -54t217.5 -147t147 -217.5 t54 -266.5t-54 -266.5t-147 -217.5t-217.5 -147t-266.5 -54t-266.5 54t-217.5 147t-147 217.5t-54 266.5t54 266.5t147 217.5t217.5 147t266.5 54zM796 453l-167 168q-14 12 -22 28t-8 36v342h172v-306l147 -147z" />
<glyph unicode="d" horiz-adv-x="1674" d="M1373 943v-943l-340 284l-343 -284l-344 284l-346 -282v1370h945zM1202 689h-515v514h-515v-858l175 138l343 -283l338 280q1 1 2 1.5t2 1.5l1 1l169 -139v344zM1202 860l-343 343v-343h343z" />
<glyph unicode="e" horiz-adv-x="1497" d="M1200 1372v-1372h-1029q-35 0 -66.5 13.5t-54.5 36.5t-36.5 54.5t-13.5 66.5v1029q0 36 13.5 67t36.5 54.5t54.5 37t66.5 13.5h1029zM1029 1200h-171v-345l-173 172l-171 -171v344h-171v-1029h686v1029z" />
<glyph unicode="f" horiz-adv-x="1532" d="M862 1370q105 0 197.5 -40t161.5 -108.5t109 -161t40 -197.5t-40 -197.5t-109 -161.5t-161.5 -109t-197.5 -40q-51 0 -97.5 10t-91.5 27l-392 -392l-281 282l392 392q-17 44 -28 91t-11 98q0 105 40 197.5t109.5 161t162 108.5t197.5 40zM862 526q70 0 131 26.5t107 72 t72.5 107t26.5 131.5q0 69 -26.5 130.5t-72.5 107.5t-107 72.5t-131 26.5q-69 0 -130.5 -26.5t-107.5 -72.5t-72.5 -107.5t-26.5 -130.5q0 -70 26.5 -131.5t72.5 -107t107.5 -72t130.5 -26.5z" />
<glyph unicode="g" horiz-adv-x="1546" d="M500 1000q0 -27 -10.5 -51t-28 -41.5t-41 -27.5t-50.5 -10q-28 0 -52.5 10t-42.5 27.5t-28.5 41.5t-10.5 51t10.5 51t28.5 42t42.5 29t52.5 11q27 0 50.5 -11t41 -29t28 -42t10.5 -51zM569 1370l801 -801h-569v-569l-801 801v569h569zM151 1215v-352l37 -37l72 -70 l92 -93l104 -103l102 -104l89 -90v353h353l-89 91l-102 102l-103 104l-94 93l-72 70l-37 36h-352z" />
<glyph unicode="h" horiz-adv-x="1581" d="M992 1109q-33 0 -63 -15t-53 -32q-27 -20 -50 -46l-139 -149l-140 149q-24 26 -50 46q-23 17 -53 32t-62 15q-40 0 -75 -14t-63 -38t-46 -57t-24 -71l513 -588l512 588q-6 38 -24 71t-45.5 57t-63 38t-74.5 14zM992 1280q79 0 148 -30t121 -82t82 -121t30 -148v-32 l-686 -787l-687 787v32q0 79 30 148t82 121t121.5 82t148.5 30q97 0 174.5 -46t130.5 -119q52 73 130 119t175 46z" />
<glyph unicode="i" horiz-adv-x="859" d="M85 686q36 0 61 -25t25 -60v-343q0 -36 -25 -61t-61 -25h-85v-172h686v172h-86q-18 0 -33.5 6.5t-27 18.5t-18.5 27.5t-7 33.5v600h-514v-172h85zM514 1201q0 -36 -13.5 -67t-37 -54.5t-54.5 -37t-66 -13.5q-36 0 -67 13.5t-54.5 37t-37 54.5t-13.5 67t13.5 67t37 54.5 t54.5 37t67 13.5q35 0 66 -13.5t54.5 -37t37 -54.5t13.5 -67z" />
<glyph unicode="j" horiz-adv-x="1600" d="M1027 856q64 0 126 -18t110 -58.5t77.5 -106t29.5 -159.5q0 -92 -29.5 -157t-77.5 -106.5t-110 -60.5t-126 -19h-171q-35 0 -66.5 -13.5t-54.5 -36.5t-36.5 -54t-13.5 -67q-71 0 -133.5 27t-109 73.5t-73.5 108.5t-27 133v172q0 51 11 93.5t29 77.5h-40q-64 0 -125.5 19 t-109.5 60t-77.5 106t-29.5 157q0 95 29.5 160.5t77.5 106t109.5 58.5t125.5 18h343q64 0 125.5 -20t109.5 -62t77.5 -107t29.5 -154v-171zM514 856q84 0 155 -37t119 -100q31 24 49.5 59.5t18.5 77.5v171q0 56 -17.5 90t-44 52t-56 24t-53.5 6h-343q-64 0 -99 -19.5 t-51 -46.5t-18.5 -56.5t-2.5 -49.5q0 -16 2.5 -44.5t18.5 -56.5t51 -49t99 -21h172zM1027 342q43 0 72.5 10t48.5 25.5t29.5 34.5t15 38t5.5 36t1 28q0 19 -2.5 48.5t-19 56.5t-51.5 46.5t-99 19.5h-47q-22 -38 -53 -69.5t-69 -54t-82 -35t-91 -12.5q0 50 -25.5 89.5 t-67.5 60.5q-30 -18 -54 -54.5t-24 -95.5v-172q0 -42 18.5 -77.5t49.5 -58.5q48 63 118.5 99.5t155.5 36.5h171zM1015 771l-2 -6l-2 -6l2 6z" />
<glyph unicode="k" horiz-adv-x="1527" d="M941 1199q-53 0 -99.5 -20.5t-81 -55.5t-55 -82t-20.5 -100q0 -11 2 -21l5 -27l14 -89l-62 -61l-473 -473v-99h171v171h172v172h171v71l51 48l7 11l65 62l89 -18q13 -2 23 -2.5t21 -0.5q54 0 101 20.5t82 55t55 81t20 99.5t-20 100t-55 82t-82 55.5t-101 20.5zM941 1370 q89 0 167 -33.5t136.5 -92t92 -136.5t33.5 -167q0 -88 -33.5 -166t-92 -136t-136.5 -91.5t-167 -33.5q-20 0 -38.5 1.5t-39.5 5.5l-7 -7v-172h-171v-171h-171v-171h-514v342l521 521q-4 21 -5.5 39.5t-1.5 38.5q0 89 33.5 167t91.5 136.5t136 92t166 33.5zM1027 941 q0 -36 -25 -60.5t-61 -24.5t-60.5 24.5t-24.5 60.5t24.5 61t60.5 25t61 -25t25 -61z" />
<glyph unicode="l" horiz-adv-x="1306" d="M601 1372q88 0 166 -34t136.5 -92t92 -136.5t33.5 -166.5v-686q0 -53 -20 -100t-55 -82t-82 -55t-100 -20h-515q-53 0 -100 20t-82 55t-55 82t-20 100v600h858v86q0 53 -20.5 100t-55.5 82t-81.5 55t-99.5 20t-100 -20t-82 -55t-55.5 -82t-20.5 -100h-171 q0 88 33.5 166.5t92 136.5t136.5 92t167 34zM772 171q18 0 33.5 6.5t27 18.5t18.5 27.5t7 33.5v429h-686v-429q0 -36 25 -61t60 -25h515zM600 428q0 -35 -25 -60t-60 -25q-36 0 -61 25t-25 60q0 36 25 61t61 25q35 0 60 -25t25 -61z" />
<glyph unicode="m" horiz-adv-x="1669" d="M689 718l-689 324v167h1372v-168zM690 528l682 324v-672h-1372v672z" />
<glyph unicode="n" horiz-adv-x="1325" d="M685 1370q71 0 133 -27t108.5 -73.5t73.5 -109t27 -133.5v-685q0 -71 -27 -133t-73.5 -108.5t-108.5 -73.5t-133 -27h-343q-71 0 -133 27t-108.5 73.5t-73.5 108.5t-27 133v685q0 71 27 133.5t73.5 109t108.5 73.5t133 27h343zM514 82q36 0 61.5 26t25.5 63 q0 36 -25.5 62t-61.5 26q-19 0 -35 -7t-28 -19t-19 -28t-7 -34q0 -37 25.5 -63t63.5 -26zM856 1027q0 36 -13.5 67t-36.5 54.5t-54 37t-67 13.5h-343q-35 0 -66.5 -13.5t-54.5 -37t-36.5 -54.5t-13.5 -67v-685h685v685z" />
<glyph unicode="o" horiz-adv-x="1669" d="M1370 0h-1370v856h1370v-856zM770 1370h429l171 -343h-600v343zM599 1027h-599l171 343h428v-343z" />
<glyph unicode="p" horiz-adv-x="1586" d="M1272 1272q50 -50 75 -113.5t25 -129t-25 -129t-75 -113.5l-786 -787h-486l2 486l785 786q51 51 114 75.5t129 24.5t128.5 -24.5t113.5 -75.5zM1149 906l-242 243l-727 -727q25 22 55.5 32.5t61.5 10t61 -12.5t54 -36q25 -26 37.5 -57.5t12.5 -64.5t-12.5 -65t-37.5 -57 h3z" />
<glyph unicode="q" horiz-adv-x="1581" d="M429 1119q-53 0 -100 -20.5t-82 -55.5t-55.5 -82t-20.5 -100v-428q0 -42 19 -78t50 -60q48 63 119 100.5t155 37.5h343q71 0 133.5 27t109 73.5t73.5 109t27 133.5t-27 133.5t-73.5 109t-109 73.5t-133.5 27h-428zM857 1290q107 0 201 -40.5t163.5 -110t110 -163.5 t40.5 -200q0 -107 -40.5 -200.5t-110 -163.5t-163.5 -110.5t-201 -40.5h-343q-35 0 -66.5 -13.5t-54.5 -37t-36.5 -54.5t-13.5 -66q-71 0 -133.5 27t-109 73.5t-73.5 109t-27 133.5v428q0 89 33.5 167t92 136.5t136.5 92t167 33.5h428z" />
<glyph unicode="r" horiz-adv-x="1669" d="M342 171q0 -35 -13.5 -66.5t-36.5 -54.5t-54 -36.5t-67 -13.5q-35 0 -66.5 13.5t-54.5 36.5t-36.5 54.5t-13.5 66.5q0 36 13.5 67t36.5 54t54.5 36.5t66.5 13.5q36 0 67 -13.5t54 -36.5t36.5 -54t13.5 -67zM258 685q89 0 167 -33.5t136 -92t91.5 -136.5t33.5 -167h-171 q0 54 -20 101t-55 82t-82 55t-100 20v171zM256 1027q106 0 205 -27.5t184.5 -77.5t156 -120.5t120.5 -156t77.5 -184.5t27.5 -205h-171q0 83 -21.5 159.5t-60.5 143.5t-93.5 121.5t-121.5 93.5t-143.5 60.5t-159.5 21.5v171zM256 1370q153 0 295.5 -40t266 -112.5 t225.5 -174t174.5 -225.5t112.5 -266t40 -296h-171q0 130 -34 250.5t-95.5 225.5t-147.5 191t-191 147.5t-225 95t-250 33.5v171z" />
<glyph unicode="s" horiz-adv-x="1591" d="M1112 0l-427 329l-429 -329l166 530l-422 326h514l171 514l171 -514h514l-423 -327z" />
<glyph unicode="t" d="M1372 1029h-171v-772q0 -53 -20.5 -99.5t-55.5 -81.5t-82 -55.5t-100 -20.5h-514q-53 0 -100 20.5t-82 55.5t-55.5 81.5t-20.5 99.5v772h-171v172h171h172q0 36 13.5 67t36.5 54t54.5 36.5t66.5 13.5h343q36 0 67 -13.5t54.5 -36.5t37 -54t13.5 -67h172h171v-172z M1029 1029h-686v-772q0 -18 7 -33.5t18.5 -27t27 -18t33.5 -6.5h514q36 0 61 25t25 60v772zM600 429q0 -18 -6.5 -33.5t-18.5 -27t-27.5 -18.5t-33.5 -7t-33.5 7t-27 18.5t-18 27t-6.5 33.5t6.5 33.5t18 27t27 18.5t33.5 7t33.5 -7t27.5 -18.5t18.5 -27t6.5 -33.5zM600 772 q0 -18 -6.5 -33.5t-18.5 -27t-27.5 -18.5t-33.5 -7t-33.5 7t-27 18.5t-18 27t-6.5 33.5t6.5 33.5t18 27t27 18.5t33.5 7t33.5 -7t27.5 -18.5t18.5 -27t6.5 -33.5zM943 429q0 -18 -6.5 -33.5t-18.5 -27t-27.5 -18.5t-33.5 -7t-33.5 7t-27 18.5t-18 27t-6.5 33.5t6.5 33.5 t18 27t27 18.5t33.5 7t33.5 -7t27.5 -18.5t18.5 -27t6.5 -33.5zM943 772q0 -18 -6.5 -33.5t-18.5 -27t-27.5 -18.5t-33.5 -7t-33.5 7t-27 18.5t-18 27t-6.5 33.5t6.5 33.5t18 27t27 18.5t33.5 7t33.5 -7t27.5 -18.5t18.5 -27t6.5 -33.5z" />
<glyph unicode="u" horiz-adv-x="1311" d="M514 686q-107 0 -200.5 -40.5t-163 -110t-110 -163.5t-40.5 -201q0 -35 13.5 -66.5t36.5 -54.5t54 -36.5t67 -13.5h686q36 0 67 13.5t54.5 36.5t37 54.5t13.5 66.5q0 107 -40.5 201t-110.5 163.5t-164 110t-200 40.5zM771 1115q0 -53 -20 -100t-55 -82t-82 -55.5 t-100 -20.5t-100 20.5t-82 55.5t-55 82t-20 100t20 100t55 82t82 55t100 20t100 -20t82 -55t55 -82t20 -100z" />
<glyph unicode="v" horiz-adv-x="1556" d="M342 361q-71 0 -133 27t-108.5 73.5t-73.5 109t-27 133.5q0 72 27 134.5t73.5 108.5t108.5 72.5t133 26.5v-685zM514 1046l342 171v-1027l-342 171v685zM1027 361v171q11 0 21 2t21 5q28 8 52 23.5t41 37t27 48t10 56.5q0 29 -10 56t-27 49t-41 38t-52 24q-11 3 -21 3.5 t-21 0.5v171q21 0 41.5 -3t41.5 -8q57 -14 105 -45.5t82.5 -75t53.5 -97.5t19 -113t-19 -113t-53.5 -97.5t-82.5 -75.5t-105 -47q-40 -10 -83 -10z" />
<glyph unicode="w" horiz-adv-x="1556" d="M1164 514q-4 -13 -8 -24.5t-9 -22.5l83 -204l-120 -122l-206 82l-23 -10l-25 -9l-85 -204h-171l-86 203q-24 7 -50 20l-202 -83l-121 120l81 203q-12 25 -21 51l-201 85v171l201 86l10 26q5 13 11 25l-84 201l122 121l203 -81l25 10q12 5 24 9l85 203h172l87 -203l24 -9 q12 -5 23 -11l204 85l122 -122l-84 -206q7 -11 11 -22l8 -24l206 -85v-172zM684 429q53 0 99.5 20t81.5 55t55 81.5t20 99.5t-20 100t-55 82t-81.5 55.5t-99.5 20.5q-54 0 -101 -20.5t-82 -55.5t-55 -82t-20 -100t20 -99.5t55 -81.5t82 -55t101 -20z" />
<glyph unicode="x" horiz-adv-x="1473" d="M1200 325l-240 -240l-360 360l-360 -360l-240 240l360 360l-360 360l240 240l360 -360l360 360l240 -240l-361 -360z" />
<glyph unicode="y" horiz-adv-x="1560" d="M512 160l-512 512l244 245l268 -268l616 616l244 -245z" />
<glyph unicode="z" horiz-adv-x="982" d="M599 1370q36 0 61 -25t25 -61v-942q0 -71 -27 -133t-73.5 -108.5t-109 -73.5t-133.5 -27t-133 27t-108.5 73.5t-73.5 108.5t-27 133v942q0 36 25 61t60 25h514zM427 342q18 0 34 7t27.5 18.5t18.5 27t7 32.5q0 36 -25.5 61.5t-61.5 25.5q-17 0 -32.5 -7t-27 -18.5 t-18.5 -27.5t-7 -34q0 -35 25 -60t60 -25zM514 1199h-343v-514h87q0 35 25 60t61 25t61 -25t25 -60h84v514z" />
<glyph unicode="{" d="M200 200q-97 98 -148.5 222t-51.5 263q0 142 54 266.5t147 217.5t217.5 147t266.5 54l85 -86l-85 -85q-107 0 -200.5 -40.5t-163 -110t-110 -163.5t-40.5 -200q0 -103 39 -197t112 -166l-106 -14zM685 0l-86 85l86 86q106 0 200 40.5t163.5 110t110 163t40.5 200.5 q0 103 -39 196.5t-112 166.5l106 14l15 108q98 -98 149.5 -223t51.5 -262q0 -142 -54 -266.5t-147 -217.5t-217.5 -147t-266.5 -54z" />
<glyph unicode="|" horiz-adv-x="1542" d="M1372 1029q0 -48 -13 -92.5t-36 -83t-56 -70t-72 -53.5q1 -11 2.5 -21.5t1.5 -21.5q0 -107 -40.5 -200.5t-110.5 -163.5t-164 -110.5t-200 -40.5q-79 0 -151.5 23t-134.5 65l-398 -260l261 395q-43 63 -67 136.5t-24 155.5q0 106 40.5 200t110 163.5t163 110t200.5 40.5 q12 0 24 -1.5t23 -2.5q22 39 53.5 71t69.5 55.5t82.5 36t92.5 12.5q71 0 133.5 -27t109 -73.5t73.5 -109t27 -133.5zM684 344q71 0 133.5 27t109 73.5t73.5 108.5t27 133q-23 0 -45 3.5t-43 9.5l-135 -135q-25 -25 -56.5 -37.5t-64.5 -12.5t-64.5 12.5t-56.5 37.5 t-37.5 56.5t-12.5 64.5t12.5 65t37.5 57l136 136q-5 20 -8.5 41.5t-3.5 44.5v2v-1h-2q-71 0 -133.5 -27t-109 -73.5t-73.5 -109t-27 -133.5t27 -133.5t73.5 -109t109 -73.5t133.5 -27zM1029 857q35 0 66 13.5t54.5 37t37 54.5t13.5 67q0 35 -13.5 66t-37 54.5t-54.5 37 t-66 13.5q-36 0 -67 -13.5t-54.5 -37t-37 -54.5t-13.5 -66q0 -36 13.5 -67t37 -54.5t54.5 -37t67 -13.5z" />
<glyph unicode="}" horiz-adv-x="1537" d="M1029 686q0 -71 -27 -133.5t-73.5 -109t-109 -73.5t-133.5 -27t-133.5 27t-109 73.5t-73.5 109t-27 133.5t27 133.5t73.5 109t109 73.5t133.5 27t133.5 -27t109 -73.5t73.5 -109t27 -133.5zM686 1230q-45 0 -86.5 -7.5t-82.5 -21.5h-3l172 172l171 -172h-2 q-40 14 -82 21.5t-87 7.5zM686 143q45 0 87 7.5t82 21.5h2l-171 -172l-172 172h3q41 -14 82.5 -21.5t86.5 -7.5zM1230 686q0 45 -8 87t-22 82v3l172 -172l-172 -171v2q14 41 22 82.5t8 86.5zM142 686q0 -45 8 -86.5t21 -82.5v-2l-171 171l171 172v-3q-13 -40 -21 -82t-8 -87 zM1071 302q32 32 55.5 67t42.5 73l2 2v-243h-242l1 2q38 20 73.5 43.5t67.5 55.5zM301 1071q-32 -32 -55.5 -67t-42.5 -73l-2 -2v243h243l-3 -2q-38 -20 -73 -43.5t-67 -55.5zM301 302q32 -32 67 -55.5t73 -43.5l3 -2h-243v243l2 -2q19 -38 42.5 -73t55.5 -67zM1071 1071 q-32 32 -67.5 55.5t-73.5 43.5l-1 2h242v-243l-2 2q-19 38 -42.5 73t-55.5 67z" />
<glyph unicode="~" horiz-adv-x="1586" d="M1244 759l123 -123l-120 -121l-124 123l-638 -638h-316l-169 171v310l640 641l-128 127l121 121l127 -127l26 24q51 51 113.5 75.5t127.5 24.5q66 0 129 -24.5t114 -75.5q50 -50 75 -113t25 -128.5t-25 -128.5t-75 -113zM1003 759l-241 241l-554 -553q45 -2 87.5 -18.5 t77.5 -50.5q37 -37 53.5 -84t14.5 -95z" />
<glyph unicode="&#xaa;" horiz-adv-x="1674" d="M1373 0h-1373v1201h172v-1029h1029v1029h172v-1201zM429 686h-171v172h171v-172zM772 686h-171v172h171v-172zM1115 686h-171v172h171v-172zM429 343h-171v172h171v-172zM772 343h-171v172h171v-172zM944 343v172h171zM343 1115v172q0 18 7 33.5t18.5 27t27 18t33.5 6.5 q36 0 61 -25t25 -60v-172q0 -18 -6.5 -33.5t-18.5 -27t-27.5 -18.5t-33.5 -7t-33.5 7t-27 18.5t-18.5 27t-7 33.5zM858 1115v172q0 35 25 60t61 25q18 0 33.5 -6.5t27 -18t18.5 -27t7 -33.5v-172q0 -18 -7 -33.5t-18.5 -27t-27 -18.5t-33.5 -7t-33.5 7t-27.5 18.5t-18.5 27 t-6.5 33.5z" />
<glyph unicode="&#xad;" horiz-adv-x="1586" d="M0 560v343h1372v-343h-1372z" />
<glyph unicode="&#xb2;" horiz-adv-x="1556" d="M685 856q36 0 67 -13.5t54 -36.5t36.5 -54t13.5 -67t-13.5 -67t-36.5 -54t-54 -36.5t-67 -13.5t-67 13.5t-54 36.5t-36.5 54t-13.5 67t13.5 67t36.5 54t54 36.5t67 13.5zM1222 1104q69 -87 108.5 -193t39.5 -226q0 -142 -54 -266.5t-147 -217.5t-217.5 -147t-266.5 -54 t-266.5 54t-217.5 147t-147 217.5t-54 266.5q0 119 38.5 224.5t105.5 193.5q11 -8 23.5 -13.5t27.5 -5.5q18 0 33.5 6.5t27 18.5t18.5 27.5t7 33.5q0 14 -5.5 27t-13.5 24q72 57 157.5 93.5t180.5 48.5q3 -33 27 -55.5t58 -22.5q33 0 56.5 22.5t27.5 54.5q95 -11 179.5 -47 t155.5 -92q-9 -10 -14.5 -23.5t-5.5 -29.5q0 -36 25 -61t60 -25q15 0 28.5 5.5t24.5 14.5zM685 342q71 0 133 27t108.5 73.5t73.5 109t27 133.5q0 72 -26.5 134t-74.5 108l-241 243l-242 -243q-47 -46 -74 -108t-27 -134q0 -71 27 -133.5t73.5 -109t109 -73.5t133.5 -27z " />
<glyph unicode="&#xb3;" horiz-adv-x="1537" d="M685 1370l685 -685l-242 -242l-272 271v-714h-342v714l-100 -100l-87 -86l-85 -85l-242 242z" />
<glyph unicode="&#xb9;" horiz-adv-x="1586" d="M1373 343h-343v-343h-1030v1030h343v343h1030v-1030zM858 343h-515v343h-171v-514h686v171zM1201 1030h-686v-515h686v515z" />
<glyph unicode="&#xba;" horiz-adv-x="1669" d="M1370 0h-1370v856h1370v-856zM770 1370h429l171 -343h-600v343zM599 1027h-599l171 343h428v-343z" />
<glyph unicode="&#xc0;" horiz-adv-x="1591" d="M725 2866q95 0 182.5 -24.5t163.5 -69t138.5 -107t107.5 -139t69.5 -164t24.5 -182.5t-24.5 -182.5t-69.5 -164t-107.5 -139t-138.5 -107t-164 -69t-182 -24.5q-142 0 -267 54t-218.5 147t-147.5 218t-54 267t54 267t147.5 218t218.5 147t267 54zM725 2694 q-107 0 -200.5 -40.5t-163.5 -110.5t-110.5 -163.5t-40.5 -199.5q0 -84 25.5 -159t70.5 -139l716 716q-63 45 -138 70.5t-159 25.5zM725 1665q106 0 199.5 40.5t163.5 110.5t110.5 163.5t40.5 200.5q0 83 -25.5 158.5t-70.5 138.5l-716 -716q63 -45 138.5 -70.5t159.5 -25.5 zM1026 1201h347v-172h-347h-172h-343h-171h-340v172h340v171h171v-171h343v171h172v-171zM1201 343h-1029v171h1029v-171zM1201 686h-1029v172h1029v-172zM1030 0h-858v171h1029z" />
<glyph unicode="&#xc2;" horiz-adv-x="1591" d="M683 1494q-95 0 -182.5 24.5t-164 69.5t-139 107.5t-107 138.5t-69 163.5t-24.5 182.5q0 142 54 267t147 218.5t218 147.5t267 54t267 -54t218 -147.5t147 -218.5t54 -267q0 -95 -24.5 -182.5t-69 -163.5t-107 -138.5t-139 -107.5t-164 -69.5t-182.5 -24.5zM340 2180 l342 -341v256h344v171h-344v258zM1026 1201h347v-172h-347h-172h-343h-171h-340v172h340v171h171v-171h343v171h172v-171zM1201 343h-1029v171h1029v-171zM1201 686h-1029v172h1029v-172zM1030 0h-858v171h1029z" />
<glyph unicode="&#xc3;" horiz-adv-x="1591" d="M1242 2253l123 -123l-120 -121l-124 123l-638 -638h-316l-169 171v310l640 641l-128 127l121 121l127 -127l26 24q51 51 113.5 75.5t127.5 24.5q66 0 129 -24.5t114 -75.5q50 -50 75 -113t25 -128.5t-25 -128.5t-75 -113zM1001 2253l-241 241l-554 -553q45 -2 87.5 -18.5 t77.5 -50.5q37 -37 53.5 -84t14.5 -95zM1026 1201h347v-172h-347h-172h-343h-171h-340v172h340v171h171v-171h343v171h172v-171zM1201 343h-1029v171h1029v-171zM1201 686h-1029v172h1029v-172zM1030 0h-858v171h1029z" />
<glyph unicode="&#xc8;" horiz-adv-x="1502" d="M729 2866q95 0 182.5 -24.5t163.5 -69t138.5 -107t107.5 -139t69.5 -164t24.5 -182.5t-24.5 -182.5t-69.5 -164t-107.5 -139t-138.5 -107t-164 -69t-182 -24.5q-142 0 -267 54t-218.5 147t-147.5 218t-54 267t54 267t147.5 218t218.5 147t267 54zM729 2694 q-107 0 -200.5 -40.5t-163.5 -110.5t-110.5 -163.5t-40.5 -199.5q0 -84 25.5 -159t70.5 -139l716 716q-63 45 -138 70.5t-159 25.5zM729 1665q106 0 199.5 40.5t163.5 110.5t110.5 163.5t40.5 200.5q0 83 -25.5 158.5t-70.5 138.5l-716 -716q63 -45 138.5 -70.5t159.5 -25.5 zM515 1029h342v-172h-342v172zM1371 856h-171v-856h-1028q-36 0 -67 13.5t-54.5 37t-37 54.5t-13.5 67v1029q0 36 13.5 67t37 54t54.5 36.5t67 13.5h1028v-172h173l-173 -173zM1029 1201h-686v-1029h686v1029z" />
<glyph unicode="&#xca;" horiz-adv-x="1502" d="M686 1494q-95 0 -182.5 24.5t-164 69.5t-139 107.5t-107 138.5t-69 163.5t-24.5 182.5q0 142 54 267t147 218.5t218 147.5t267 54t267 -54t218 -147.5t147 -218.5t54 -267q0 -95 -24.5 -182.5t-69 -163.5t-107 -138.5t-139 -107.5t-164 -69.5t-182.5 -24.5zM343 2180 l342 -341v256h344v171h-344v258zM515 1029h342v-172h-342v172zM1371 856h-171v-856h-1028q-36 0 -67 13.5t-54.5 37t-37 54.5t-13.5 67v1029q0 36 13.5 67t37 54t54.5 36.5t67 13.5h1028v-172h173l-173 -173zM1029 1201h-686v-1029h686v1029z" />
<glyph unicode="&#xe0;" horiz-adv-x="1674" d="M729 2866q95 0 182.5 -24.5t163.5 -69t138.5 -107t107.5 -139t69.5 -164t24.5 -182.5t-24.5 -182.5t-69.5 -164t-107.5 -139t-138.5 -107t-164 -69t-182 -24.5q-142 0 -267 54t-218.5 147t-147.5 218t-54 267t54 267t147.5 218t218.5 147t267 54zM729 2694 q-107 0 -200.5 -40.5t-163.5 -110.5t-110.5 -163.5t-40.5 -199.5q0 -84 25.5 -159t70.5 -139l716 716q-63 45 -138 70.5t-159 25.5zM729 1665q106 0 199.5 40.5t163.5 110.5t110.5 163.5t40.5 200.5q0 83 -25.5 158.5t-70.5 138.5l-716 -716q63 -45 138.5 -70.5t159.5 -25.5 zM1373 0h-1373v1201h172v-1029h1029v1029h172v-1201zM429 686h-171v172h171v-172zM772 686h-171v172h171v-172zM1115 686h-171v172h171v-172zM429 343h-171v172h171v-172zM772 343h-171v172h171v-172zM944 343v172h171zM343 1115v172q0 18 7 33.5t18.5 27t27 18t33.5 6.5 q36 0 61 -25t25 -60v-172q0 -18 -6.5 -33.5t-18.5 -27t-27.5 -18.5t-33.5 -7t-33.5 7t-27 18.5t-18.5 27t-7 33.5zM858 1115v172q0 35 25 60t61 25q18 0 33.5 -6.5t27 -18t18.5 -27t7 -33.5v-172q0 -18 -7 -33.5t-18.5 -27t-27 -18.5t-33.5 -7t-33.5 7t-27.5 18.5t-18.5 27 t-6.5 33.5z" />
<glyph unicode="&#xe2;" horiz-adv-x="1674" d="M686 1494q-95 0 -182.5 24.5t-164 69.5t-139 107.5t-107 138.5t-69 163.5t-24.5 182.5q0 142 54 267t147 218.5t218 147.5t267 54t267 -54t218 -147.5t147 -218.5t54 -267q0 -95 -24.5 -182.5t-69 -163.5t-107 -138.5t-139 -107.5t-164 -69.5t-182.5 -24.5zM343 2180 l342 -341v256h344v171h-344v258zM1373 0h-1373v1201h172v-1029h1029v1029h172v-1201zM429 686h-171v172h171v-172zM772 686h-171v172h171v-172zM1115 686h-171v172h171v-172zM429 343h-171v172h171v-172zM772 343h-171v172h171v-172zM944 343v172h171zM343 1115v172 q0 18 7 33.5t18.5 27t27 18t33.5 6.5q36 0 61 -25t25 -60v-172q0 -18 -6.5 -33.5t-18.5 -27t-27.5 -18.5t-33.5 -7t-33.5 7t-27 18.5t-18.5 27t-7 33.5zM858 1115v172q0 35 25 60t61 25q18 0 33.5 -6.5t27 -18t18.5 -27t7 -33.5v-172q0 -18 -7 -33.5t-18.5 -27t-27 -18.5 t-33.5 -7t-33.5 7t-27.5 18.5t-18.5 27t-6.5 33.5z" />
<glyph unicode="&#xe3;" horiz-adv-x="1674" d="M1246 2253l123 -123l-120 -121l-124 123l-638 -638h-316l-169 171v310l640 641l-128 127l121 121l127 -127l26 24q51 51 113.5 75.5t127.5 24.5q66 0 129 -24.5t114 -75.5q50 -50 75 -113t25 -128.5t-25 -128.5t-75 -113zM1005 2253l-241 241l-554 -553q45 -2 87.5 -18.5 t77.5 -50.5q37 -37 53.5 -84t14.5 -95zM1373 0h-1373v1201h172v-1029h1029v1029h172v-1201zM429 686h-171v172h171v-172zM772 686h-171v172h171v-172zM1115 686h-171v172h171v-172zM429 343h-171v172h171v-172zM772 343h-171v172h171v-172zM944 343v172h171zM343 1115v172 q0 18 7 33.5t18.5 27t27 18t33.5 6.5q36 0 61 -25t25 -60v-172q0 -18 -6.5 -33.5t-18.5 -27t-27.5 -18.5t-33.5 -7t-33.5 7t-27 18.5t-18.5 27t-7 33.5zM858 1115v172q0 35 25 60t61 25q18 0 33.5 -6.5t27 -18t18.5 -27t7 -33.5v-172q0 -18 -7 -33.5t-18.5 -27t-27 -18.5 t-33.5 -7t-33.5 7t-27.5 18.5t-18.5 27t-6.5 33.5z" />
<glyph unicode="&#xe8;" horiz-adv-x="1497" d="M728 2866q95 0 182.5 -24.5t163.5 -69t138.5 -107t107.5 -139t69.5 -164t24.5 -182.5t-24.5 -182.5t-69.5 -164t-107.5 -139t-138.5 -107t-164 -69t-182 -24.5q-142 0 -267 54t-218.5 147t-147.5 218t-54 267t54 267t147.5 218t218.5 147t267 54zM728 2694 q-107 0 -200.5 -40.5t-163.5 -110.5t-110.5 -163.5t-40.5 -199.5q0 -84 25.5 -159t70.5 -139l716 716q-63 45 -138 70.5t-159 25.5zM728 1665q106 0 199.5 40.5t163.5 110.5t110.5 163.5t40.5 200.5q0 83 -25.5 158.5t-70.5 138.5l-716 -716q63 -45 138.5 -70.5t159.5 -25.5 zM1200 1372v-1372h-1029q-35 0 -66.5 13.5t-54.5 36.5t-36.5 54.5t-13.5 66.5v1029q0 36 13.5 67t36.5 54.5t54.5 37t66.5 13.5h1029zM1029 1200h-171v-345l-173 172l-171 -171v344h-171v-1029h686v1029z" />
<glyph unicode="&#xea;" horiz-adv-x="1497" d="M686 1494q-95 0 -182.5 24.5t-164 69.5t-139 107.5t-107 138.5t-69 163.5t-24.5 182.5q0 142 54 267t147 218.5t218 147.5t267 54t267 -54t218 -147.5t147 -218.5t54 -267q0 -95 -24.5 -182.5t-69 -163.5t-107 -138.5t-139 -107.5t-164 -69.5t-182.5 -24.5zM343 2180 l342 -341v256h344v171h-344v258zM1200 1372v-1372h-1029q-35 0 -66.5 13.5t-54.5 36.5t-36.5 54.5t-13.5 66.5v1029q0 36 13.5 67t36.5 54.5t54.5 37t66.5 13.5h1029zM1029 1200h-171v-345l-173 172l-171 -171v344h-171v-1029h686v1029z" />
<glyph unicode="&#xec;" horiz-adv-x="859" d="M385 2867q95 0 182.5 -24.5t163.5 -69t138.5 -107t107.5 -139t69.5 -164t24.5 -182.5t-24.5 -182.5t-69.5 -164t-107.5 -139t-138.5 -107t-164 -69t-182 -24.5q-142 0 -267 54t-218.5 147t-147.5 218t-54 267t54 267t147.5 218t218.5 147t267 54zM385 2695 q-107 0 -200.5 -40.5t-163.5 -110.5t-110.5 -163.5t-40.5 -199.5q0 -84 25.5 -159t70.5 -139l716 716q-63 45 -138 70.5t-159 25.5zM385 1666q106 0 199.5 40.5t163.5 110.5t110.5 163.5t40.5 200.5q0 83 -25.5 158.5t-70.5 138.5l-716 -716q63 -45 138.5 -70.5t159.5 -25.5 zM85 686q36 0 61 -25t25 -60v-343q0 -36 -25 -61t-61 -25h-85v-172h686v172h-86q-18 0 -33.5 6.5t-27 18.5t-18.5 27.5t-7 33.5v600h-514v-172h85zM514 1201q0 -36 -13.5 -67t-37 -54.5t-54.5 -37t-66 -13.5q-36 0 -67 13.5t-54.5 37t-37 54.5t-13.5 67t13.5 67t37 54.5 t54.5 37t67 13.5q35 0 66 -13.5t54.5 -37t37 -54.5t13.5 -67z" />
<glyph unicode="&#xee;" horiz-adv-x="859" d="M343 1495q-95 0 -182.5 24.5t-164 69.5t-139 107.5t-107 138.5t-69 163.5t-24.5 182.5q0 142 54 267t147 218.5t218 147.5t267 54t267 -54t218 -147.5t147 -218.5t54 -267q0 -95 -24.5 -182.5t-69 -163.5t-107 -138.5t-139 -107.5t-164 -69.5t-182.5 -24.5zM0 2181 l342 -341v256h344v171h-344v258zM85 686q36 0 61 -25t25 -60v-343q0 -36 -25 -61t-61 -25h-85v-172h686v172h-86q-18 0 -33.5 6.5t-27 18.5t-18.5 27.5t-7 33.5v600h-514v-172h85zM514 1201q0 -36 -13.5 -67t-37 -54.5t-54.5 -37t-66 -13.5q-36 0 -67 13.5t-54.5 37 t-37 54.5t-13.5 67t13.5 67t37 54.5t54.5 37t67 13.5q35 0 66 -13.5t54.5 -37t37 -54.5t13.5 -67z" />
<glyph unicode="&#xf1;" horiz-adv-x="1325" d="M1072 2251l123 -123l-120 -121l-124 123l-638 -638h-316l-169 171v310l640 641l-128 127l121 121l127 -127l26 24q51 51 113.5 75.5t127.5 24.5q66 0 129 -24.5t114 -75.5q50 -50 75 -113t25 -128.5t-25 -128.5t-75 -113zM831 2251l-241 241l-554 -553q45 -2 87.5 -18.5 t77.5 -50.5q37 -37 53.5 -84t14.5 -95zM685 1370q71 0 133 -27t108.5 -73.5t73.5 -109t27 -133.5v-685q0 -71 -27 -133t-73.5 -108.5t-108.5 -73.5t-133 -27h-343q-71 0 -133 27t-108.5 73.5t-73.5 108.5t-27 133v685q0 71 27 133.5t73.5 109t108.5 73.5t133 27h343zM514 82 q36 0 61.5 26t25.5 63q0 36 -25.5 62t-61.5 26q-19 0 -35 -7t-28 -19t-19 -28t-7 -34q0 -37 25.5 -63t63.5 -26zM856 1027q0 36 -13.5 67t-36.5 54.5t-54 37t-67 13.5h-343q-35 0 -66.5 -13.5t-54.5 -37t-36.5 -54.5t-13.5 -67v-685h685v685z" />
<glyph unicode="&#xf2;" horiz-adv-x="1669" d="M727 2864q95 0 182.5 -24.5t163.5 -69t138.5 -107t107.5 -139t69.5 -164t24.5 -182.5t-24.5 -182.5t-69.5 -164t-107.5 -139t-138.5 -107t-164 -69t-182 -24.5q-142 0 -267 54t-218.5 147t-147.5 218t-54 267t54 267t147.5 218t218.5 147t267 54zM727 2692 q-107 0 -200.5 -40.5t-163.5 -110.5t-110.5 -163.5t-40.5 -199.5q0 -84 25.5 -159t70.5 -139l716 716q-63 45 -138 70.5t-159 25.5zM727 1663q106 0 199.5 40.5t163.5 110.5t110.5 163.5t40.5 200.5q0 83 -25.5 158.5t-70.5 138.5l-716 -716q63 -45 138.5 -70.5t159.5 -25.5 zM1370 0h-1370v856h1370v-856zM770 1370h429l171 -343h-600v343zM599 1027h-599l171 343h428v-343z" />
<glyph unicode="&#xf4;" horiz-adv-x="1669" d="M685 1492q-95 0 -182.5 24.5t-164 69.5t-139 107.5t-107 138.5t-69 163.5t-24.5 182.5q0 142 54 267t147 218.5t218 147.5t267 54t267 -54t218 -147.5t147 -218.5t54 -267q0 -95 -24.5 -182.5t-69 -163.5t-107 -138.5t-139 -107.5t-164 -69.5t-182.5 -24.5zM342 2178 l342 -341v256h344v171h-344v258zM1370 0h-1370v856h1370v-856zM770 1370h429l171 -343h-600v343zM599 1027h-599l171 343h428v-343z" />
<glyph unicode="&#xf5;" horiz-adv-x="1669" d="M1244 2251l123 -123l-120 -121l-124 123l-638 -638h-316l-169 171v310l640 641l-128 127l121 121l127 -127l26 24q51 51 113.5 75.5t127.5 24.5q66 0 129 -24.5t114 -75.5q50 -50 75 -113t25 -128.5t-25 -128.5t-75 -113zM1003 2251l-241 241l-554 -553q45 -2 87.5 -18.5 t77.5 -50.5q37 -37 53.5 -84t14.5 -95zM1370 0h-1370v856h1370v-856zM770 1370h429l171 -343h-600v343zM599 1027h-599l171 343h428v-343z" />
<glyph unicode="&#xf9;" horiz-adv-x="1311" d="M557 2866q95 0 182.5 -24.5t163.5 -69t138.5 -107t107.5 -139t69.5 -164t24.5 -182.5t-24.5 -182.5t-69.5 -164t-107.5 -139t-138.5 -107t-164 -69t-182 -24.5q-142 0 -267 54t-218.5 147t-147.5 218t-54 267t54 267t147.5 218t218.5 147t267 54zM557 2694 q-107 0 -200.5 -40.5t-163.5 -110.5t-110.5 -163.5t-40.5 -199.5q0 -84 25.5 -159t70.5 -139l716 716q-63 45 -138 70.5t-159 25.5zM557 1665q106 0 199.5 40.5t163.5 110.5t110.5 163.5t40.5 200.5q0 83 -25.5 158.5t-70.5 138.5l-716 -716q63 -45 138.5 -70.5t159.5 -25.5 zM514 686q-107 0 -200.5 -40.5t-163 -110t-110 -163.5t-40.5 -201q0 -35 13.5 -66.5t36.5 -54.5t54 -36.5t67 -13.5h686q36 0 67 13.5t54.5 36.5t37 54.5t13.5 66.5q0 107 -40.5 201t-110.5 163.5t-164 110t-200 40.5zM771 1115q0 -53 -20 -100t-55 -82t-82 -55.5 t-100 -20.5t-100 20.5t-82 55.5t-55 82t-20 100t20 100t55 82t82 55t100 20t100 -20t82 -55t55 -82t20 -100z" />
<glyph unicode="&#xfb;" horiz-adv-x="1311" d="M514 1494q-95 0 -182.5 24.5t-164 69.5t-139 107.5t-107 138.5t-69 163.5t-24.5 182.5q0 142 54 267t147 218.5t218 147.5t267 54t267 -54t218 -147.5t147 -218.5t54 -267q0 -95 -24.5 -182.5t-69 -163.5t-107 -138.5t-139 -107.5t-164 -69.5t-182.5 -24.5zM171 2180 l342 -341v256h344v171h-344v258zM514 686q-107 0 -200.5 -40.5t-163 -110t-110 -163.5t-40.5 -201q0 -35 13.5 -66.5t36.5 -54.5t54 -36.5t67 -13.5h686q36 0 67 13.5t54.5 36.5t37 54.5t13.5 66.5q0 107 -40.5 201t-110.5 163.5t-164 110t-200 40.5zM771 1115 q0 -53 -20 -100t-55 -82t-82 -55.5t-100 -20.5t-100 20.5t-82 55.5t-55 82t-20 100t20 100t55 82t82 55t100 20t100 -20t82 -55t55 -82t20 -100z" />
<glyph unicode="&#x153;" horiz-adv-x="3166" d="M2869 1372v-1372h-1029q-35 0 -66.5 13.5t-54.5 36.5t-36.5 54.5t-13.5 66.5v1029q0 36 13.5 67t36.5 54.5t54.5 37t66.5 13.5h1029zM2698 1200h-171v-345l-173 172l-171 -171v344h-171v-1029h686v1029zM1370 0h-1370v856h1370v-856zM770 1370h429l171 -343h-600v343z M599 1027h-599l171 343h428v-343z" />
<glyph unicode="&#x2c6;" d="M686 0q-95 0 -182.5 24.5t-164 69.5t-139 107.5t-107 138.5t-69 163.5t-24.5 182.5q0 142 54 267t147 218.5t218 147.5t267 54t267 -54t218 -147.5t147 -218.5t54 -267q0 -95 -24.5 -182.5t-69 -163.5t-107 -138.5t-139 -107.5t-164 -69.5t-182.5 -24.5zM343 686 l342 -341v256h344v171h-344v258z" />
<glyph unicode="&#x2dc;" horiz-adv-x="512" d="M559 881l123 -123l-120 -121l-124 123l-638 -638h-316l-169 171v310l640 641l-128 127l121 121l127 -127l26 24q51 51 113.5 75.5t127.5 24.5q66 0 129 -24.5t114 -75.5q50 -50 75 -113t25 -128.5t-25 -128.5t-75 -113zM318 881l-241 241l-554 -553q45 -2 87.5 -18.5 t77.5 -50.5q37 -37 53.5 -84t14.5 -95z" />
<glyph unicode="&#x2000;" horiz-adv-x="1434" />
<glyph unicode="&#x2001;" horiz-adv-x="2868" />
<glyph unicode="&#x2002;" horiz-adv-x="1434" />
<glyph unicode="&#x2003;" horiz-adv-x="2868" />
<glyph unicode="&#x2004;" horiz-adv-x="956" />
<glyph unicode="&#x2005;" horiz-adv-x="717" />
<glyph unicode="&#x2006;" horiz-adv-x="478" />
<glyph unicode="&#x2007;" horiz-adv-x="478" />
<glyph unicode="&#x2008;" horiz-adv-x="358" />
<glyph unicode="&#x2009;" horiz-adv-x="573" />
<glyph unicode="&#x200a;" horiz-adv-x="159" />
<glyph unicode="&#x2010;" horiz-adv-x="1586" d="M0 560v343h1372v-343h-1372z" />
<glyph unicode="&#x2011;" horiz-adv-x="1586" d="M0 560v343h1372v-343h-1372z" />
<glyph unicode="&#x2012;" horiz-adv-x="1586" d="M0 560v343h1372v-343h-1372z" />
<glyph unicode="&#x2013;" horiz-adv-x="1024" d="M0 560v343h810v-343h-810z" />
<glyph unicode="&#x2014;" horiz-adv-x="2048" d="M0 560v343h1834v-343h-1834z" />
<glyph unicode="&#x2018;" d="M687 1372q95 0 182.5 -24.5t163.5 -69t138.5 -107t107.5 -139t69.5 -164t24.5 -182.5t-24.5 -182.5t-69.5 -164t-107.5 -139t-138.5 -107t-164 -69t-182 -24.5q-142 0 -267 54t-218.5 147t-147.5 218t-54 267t54 267t147.5 218t218.5 147t267 54zM687 1200 q-107 0 -200.5 -40.5t-163.5 -110.5t-110.5 -163.5t-40.5 -199.5q0 -84 25.5 -159t70.5 -139l716 716q-63 45 -138 70.5t-159 25.5zM687 171q106 0 199.5 40.5t163.5 110.5t110.5 163.5t40.5 200.5q0 83 -25.5 158.5t-70.5 138.5l-716 -716q63 -45 138.5 -70.5t159.5 -25.5z " />
<glyph unicode="&#x2019;" horiz-adv-x="1669" d="M856 180v514l514 513v-1027h-514zM0 180v514l514 513v-1027h-514z" />
<glyph unicode="&#x201c;" horiz-adv-x="1669" d="M856 180v514q0 106 40.5 199.5t110 163t163 110t200.5 40.5v-171q-71 0 -133.5 -27t-109 -73.5t-73.5 -108.5t-27 -133h343v-514h-514zM0 180v514q0 106 40.5 199.5t110 163t163 110t200.5 40.5v-171q-71 0 -133.5 -27t-109 -73.5t-73.5 -108.5t-27 -133h343v-514h-514z " />
<glyph unicode="&#x201d;" horiz-adv-x="1669" d="M856 180v514q0 106 40.5 199.5t110 163t163 110t200.5 40.5v-171q-71 0 -133.5 -27t-109 -73.5t-73.5 -108.5t-27 -133h343v-514h-514zM0 180v514q0 106 40.5 199.5t110 163t163 110t200.5 40.5v-171q-71 0 -133.5 -27t-109 -73.5t-73.5 -108.5t-27 -133h343v-514h-514z " />
<glyph unicode="&#x2026;" horiz-adv-x="4728" d="M4522 1199h-1370v171h1370v-171zM4008 856h-856v171h856v-171zM4522 510h-1370v171h1370v-171zM3323 85q0 -35 -25 -60t-61 -25q-35 0 -60 25t-25 60q0 36 25 61t60 25q36 0 61 -25t25 -61zM3666 85q0 -18 -7 -33.5t-18.5 -27t-27.5 -18t-34 -6.5q-17 0 -32.5 6.5t-27 18 t-18.5 27t-7 33.5t7 33.5t18.5 27.5t27 18.5t32.5 6.5q36 0 61.5 -25t25.5 -61zM4008 85q0 -35 -25 -60t-61 -25q-35 0 -60 25t-25 60q0 36 25 61t60 25q36 0 61 -25t25 -61zM2946 1199h-1370v171h1370v-171zM2432 856h-856v171h856v-171zM2946 510h-1370v171h1370v-171z M1747 85q0 -35 -25 -60t-61 -25q-35 0 -60 25t-25 60q0 36 25 61t60 25q36 0 61 -25t25 -61zM2090 85q0 -18 -7 -33.5t-18.5 -27t-27.5 -18t-34 -6.5q-17 0 -32.5 6.5t-27 18t-18.5 27t-7 33.5t7 33.5t18.5 27.5t27 18.5t32.5 6.5q36 0 61.5 -25t25.5 -61zM2432 85 q0 -35 -25 -60t-61 -25q-35 0 -60 25t-25 60q0 36 25 61t60 25q36 0 61 -25t25 -61zM1370 1199h-1370v171h1370v-171zM856 856h-856v171h856v-171zM1370 510h-1370v171h1370v-171zM171 85q0 -35 -25 -60t-61 -25q-35 0 -60 25t-25 60q0 36 25 61t60 25q36 0 61 -25t25 -61z M514 85q0 -18 -7 -33.5t-18.5 -27t-27.5 -18t-34 -6.5q-17 0 -32.5 6.5t-27 18t-18.5 27t-7 33.5t7 33.5t18.5 27.5t27 18.5t32.5 6.5q36 0 61.5 -25t25.5 -61zM856 85q0 -35 -25 -60t-61 -25q-35 0 -60 25t-25 60q0 36 25 61t60 25q36 0 61 -25t25 -61z" />
<glyph unicode="&#x202f;" horiz-adv-x="573" />
<glyph unicode="&#x2039;" horiz-adv-x="1586" d="M858 343h-86v-257q0 -36 -25 -61t-60 -25q-36 0 -61 25t-25 61v257h-86v171h86v772q0 36 25 61t61 25q35 0 60 -25t25 -61v-772h86v-171zM1373 857h-86v-771q0 -36 -25 -61t-61 -25q-18 0 -33.5 6.5t-27 18.5t-18.5 27.5t-7 33.5v771h-85v172h85v257q0 18 7 33.5 t18.5 27.5t27 18.5t33.5 6.5q36 0 61 -25t25 -61v-257h86v-172zM343 686h-85v-600q0 -36 -25 -61t-61 -25q-18 0 -33.5 6.5t-27 18.5t-18.5 27.5t-7 33.5v600h-86v171h86v429q0 18 7 33.5t18.5 27.5t27 18.5t33.5 6.5q36 0 61 -25t25 -61v-429h85v-171z" />
<glyph unicode="&#x203a;" horiz-adv-x="1581" d="M1370 1199h-1370v171h1370v-171zM856 856h-856v171h856v-171zM1370 342h-1370v172h1370v-172zM1027 0h-1027v171h1027v-171zM1370 86q0 -36 -25 -61t-60 -25q-36 0 -61 25t-25 61q0 35 25 60t61 25q35 0 60 -25t25 -60z" />
<glyph unicode="&#x205f;" horiz-adv-x="717" />
<glyph unicode="&#xe000;" horiz-adv-x="1285" d="M0 1285h1285v-1285h-1285v1285z" />
<glyph unicode="&#xfb01;" horiz-adv-x="2391" d="M1617 686q36 0 61 -25t25 -60v-343q0 -36 -25 -61t-61 -25h-85v-172h686v172h-86q-18 0 -33.5 6.5t-27 18.5t-18.5 27.5t-7 33.5v600h-514v-172h85zM2046 1201q0 -36 -13.5 -67t-37 -54.5t-54.5 -37t-66 -13.5q-36 0 -67 13.5t-54.5 37t-37 54.5t-13.5 67t13.5 67 t37 54.5t54.5 37t67 13.5q35 0 66 -13.5t54.5 -37t37 -54.5t13.5 -67zM862 1370q105 0 197.5 -40t161.5 -108.5t109 -161t40 -197.5t-40 -197.5t-109 -161.5t-161.5 -109t-197.5 -40q-51 0 -97.5 10t-91.5 27l-392 -392l-281 282l392 392q-17 44 -28 91t-11 98 q0 105 40 197.5t109.5 161t162 108.5t197.5 40zM862 526q70 0 131 26.5t107 72t72.5 107t26.5 131.5q0 69 -26.5 130.5t-72.5 107.5t-107 72.5t-131 26.5q-69 0 -130.5 -26.5t-107.5 -72.5t-72.5 -107.5t-26.5 -130.5q0 -70 26.5 -131.5t72.5 -107t107.5 -72t130.5 -26.5z " />
<glyph unicode="&#xfb02;" horiz-adv-x="2838" d="M2133 1372q88 0 166 -34t136.5 -92t92 -136.5t33.5 -166.5v-686q0 -53 -20 -100t-55 -82t-82 -55t-100 -20h-515q-53 0 -100 20t-82 55t-55 82t-20 100v600h858v86q0 53 -20.5 100t-55.5 82t-81.5 55t-99.5 20t-100 -20t-82 -55t-55.5 -82t-20.5 -100h-171 q0 88 33.5 166.5t92 136.5t136.5 92t167 34zM2304 171q18 0 33.5 6.5t27 18.5t18.5 27.5t7 33.5v429h-686v-429q0 -36 25 -61t60 -25h515zM2132 428q0 -35 -25 -60t-60 -25q-36 0 -61 25t-25 60q0 36 25 61t61 25q35 0 60 -25t25 -61zM862 1370q105 0 197.5 -40 t161.5 -108.5t109 -161t40 -197.5t-40 -197.5t-109 -161.5t-161.5 -109t-197.5 -40q-51 0 -97.5 10t-91.5 27l-392 -392l-281 282l392 392q-17 44 -28 91t-11 98q0 105 40 197.5t109.5 161t162 108.5t197.5 40zM862 526q70 0 131 26.5t107 72t72.5 107t26.5 131.5 q0 69 -26.5 130.5t-72.5 107.5t-107 72.5t-131 26.5q-69 0 -130.5 -26.5t-107.5 -72.5t-72.5 -107.5t-26.5 -130.5q0 -70 26.5 -131.5t72.5 -107t107.5 -72t130.5 -26.5z" />
<glyph unicode="&#xfb03;" horiz-adv-x="3923" d="M3149 686q36 0 61 -25t25 -60v-343q0 -36 -25 -61t-61 -25h-85v-172h686v172h-86q-18 0 -33.5 6.5t-27 18.5t-18.5 27.5t-7 33.5v600h-514v-172h85zM3578 1201q0 -36 -13.5 -67t-37 -54.5t-54.5 -37t-66 -13.5q-36 0 -67 13.5t-54.5 37t-37 54.5t-13.5 67t13.5 67 t37 54.5t54.5 37t67 13.5q35 0 66 -13.5t54.5 -37t37 -54.5t13.5 -67zM2394 1370q105 0 197.5 -40t161.5 -108.5t109 -161t40 -197.5t-40 -197.5t-109 -161.5t-161.5 -109t-197.5 -40q-51 0 -97.5 10t-91.5 27l-392 -392l-281 282l392 392q-17 44 -28 91t-11 98 q0 105 40 197.5t109.5 161t162 108.5t197.5 40zM2394 526q70 0 131 26.5t107 72t72.5 107t26.5 131.5q0 69 -26.5 130.5t-72.5 107.5t-107 72.5t-131 26.5q-69 0 -130.5 -26.5t-107.5 -72.5t-72.5 -107.5t-26.5 -130.5q0 -70 26.5 -131.5t72.5 -107t107.5 -72t130.5 -26.5z M862 1370q105 0 197.5 -40t161.5 -108.5t109 -161t40 -197.5t-40 -197.5t-109 -161.5t-161.5 -109t-197.5 -40q-51 0 -97.5 10t-91.5 27l-392 -392l-281 282l392 392q-17 44 -28 91t-11 98q0 105 40 197.5t109.5 161t162 108.5t197.5 40zM862 526q70 0 131 26.5t107 72 t72.5 107t26.5 131.5q0 69 -26.5 130.5t-72.5 107.5t-107 72.5t-131 26.5q-69 0 -130.5 -26.5t-107.5 -72.5t-72.5 -107.5t-26.5 -130.5q0 -70 26.5 -131.5t72.5 -107t107.5 -72t130.5 -26.5z" />
<glyph unicode="&#xfb04;" horiz-adv-x="4370" d="M3665 1372q88 0 166 -34t136.5 -92t92 -136.5t33.5 -166.5v-686q0 -53 -20 -100t-55 -82t-82 -55t-100 -20h-515q-53 0 -100 20t-82 55t-55 82t-20 100v600h858v86q0 53 -20.5 100t-55.5 82t-81.5 55t-99.5 20t-100 -20t-82 -55t-55.5 -82t-20.5 -100h-171 q0 88 33.5 166.5t92 136.5t136.5 92t167 34zM3836 171q18 0 33.5 6.5t27 18.5t18.5 27.5t7 33.5v429h-686v-429q0 -36 25 -61t60 -25h515zM3664 428q0 -35 -25 -60t-60 -25q-36 0 -61 25t-25 60q0 36 25 61t61 25q35 0 60 -25t25 -61zM2394 1370q105 0 197.5 -40 t161.5 -108.5t109 -161t40 -197.5t-40 -197.5t-109 -161.5t-161.5 -109t-197.5 -40q-51 0 -97.5 10t-91.5 27l-392 -392l-281 282l392 392q-17 44 -28 91t-11 98q0 105 40 197.5t109.5 161t162 108.5t197.5 40zM2394 526q70 0 131 26.5t107 72t72.5 107t26.5 131.5 q0 69 -26.5 130.5t-72.5 107.5t-107 72.5t-131 26.5q-69 0 -130.5 -26.5t-107.5 -72.5t-72.5 -107.5t-26.5 -130.5q0 -70 26.5 -131.5t72.5 -107t107.5 -72t130.5 -26.5zM862 1370q105 0 197.5 -40t161.5 -108.5t109 -161t40 -197.5t-40 -197.5t-109 -161.5t-161.5 -109 t-197.5 -40q-51 0 -97.5 10t-91.5 27l-392 -392l-281 282l392 392q-17 44 -28 91t-11 98q0 105 40 197.5t109.5 161t162 108.5t197.5 40zM862 526q70 0 131 26.5t107 72t72.5 107t26.5 131.5q0 69 -26.5 130.5t-72.5 107.5t-107 72.5t-131 26.5q-69 0 -130.5 -26.5 t-107.5 -72.5t-72.5 -107.5t-26.5 -130.5q0 -70 26.5 -131.5t72.5 -107t107.5 -72t130.5 -26.5z" />
</font>
</defs>
</svg>
