<?xml version="1.0" standalone="no"?>
<!DOCTYPE svg PUBLIC "-//W3C//DTD SVG 1.1//EN" "http://www.w3.org/Graphics/SVG/1.1/DTD/svg11.dtd" >
<svg xmlns="http://www.w3.org/2000/svg">
<metadata>
This is a custom SVG webfont generated by Font Squirrel.
Copyright   : Copyright c 2011 by Jamie Hoover All rights reserved
Designer    : Jamie Hoover
Foundry     : Ninja UI
Foundry URL : httpninjauicom
</metadata>
<defs>
<font id="webfont244ce1kF" horiz-adv-x="2048" >
<font-face units-per-em="2048" ascent="1024" descent="-1024" />
<missing-glyph horiz-adv-x="512" />
<glyph horiz-adv-x="0" />
<glyph horiz-adv-x="0" />
<glyph unicode="&#xd;" horiz-adv-x="512" />
<glyph unicode=" "  horiz-adv-x="512" />
<glyph unicode="&#x09;" horiz-adv-x="512" />
<glyph unicode="&#xa0;" horiz-adv-x="512" />
<glyph unicode="!" d="M896 -706h256v257h-256v-257zM896 -193h256v771h-256v-771zM767 835l129 128h256l129 -128l770 -1541v-129l-128 -128h-1798l-128 128v129z" />
<glyph unicode="$" d="M653 -657q33 0 61.5 -11.5t49.5 -32t33.5 -48.5t12.5 -60q0 -33 -12.5 -61.5t-33.5 -49.5t-49.5 -33.5t-61.5 -12.5t-60.5 12.5t-48 33.5t-32 49.5t-11.5 61.5q0 32 11.5 60t32 48.5t48 32t60.5 11.5zM1507 -657q32 0 60.5 -12t50 -33t34 -49t12.5 -61q0 -32 -12.5 -60.5 t-34 -49.5t-50 -33.5t-60.5 -12.5q-33 0 -61.5 12.5t-49.5 33.5t-33.5 49.5t-12.5 60.5q0 33 12.5 61t33.5 49t49.5 33t61.5 12zM192 968q45 -3 84 -29q16 -11 33 -28t31.5 -42t26.5 -58.5t18 -77.5l32 -79l1482 2q40 -2 73 -20q28 -15 51 -48t23 -93l2 -536q-2 -41 -19 -74 q-14 -28 -45 -50.5t-87 -22.5l-1393 -7l38 -154h1351q16 0 30 -12t24.5 -29.5t16.5 -37.5t6 -36t-6 -36t-16.5 -38t-24.5 -30t-30 -12h-1457q-16 0 -30 18t-24.5 43t-16.5 51t-6 42q-3 26 -25 158l-24 140l-35 206l-49 284l-65 375h-161q3 64 24 115q9 22 23 42.5t34 37 t47.5 26.5t63.5 10zM503 500q-32 0 -54.5 -22.5t-22.5 -54.5v-77q0 -32 22.5 -54.5t54.5 -22.5h78q32 0 54.5 22.5t22.5 54.5v77q0 32 -22.5 54.5t-54.5 22.5h-78zM812 500q-32 0 -54.5 -22.5t-22.5 -54.5v-77q0 -32 22.5 -54.5t54.5 -22.5h77q32 0 55 22.5t23 54.5v77 q0 32 -23 54.5t-55 22.5h-77zM1121 500q-32 0 -54.5 -22.5t-22.5 -54.5v-77q0 -32 22.5 -54.5t54.5 -22.5h77q32 0 54.5 22.5t22.5 54.5v77q0 32 -22.5 54.5t-54.5 22.5h-77zM1430 500q-32 0 -54.5 -22.5t-22.5 -54.5v-77q0 -32 22.5 -54.5t54.5 -22.5h77q32 0 54.5 22.5 t22.5 54.5v77q0 32 -22.5 54.5t-54.5 22.5h-77zM1738 500q-32 0 -54.5 -22.5t-22.5 -54.5v-77q0 -32 22.5 -54.5t54.5 -22.5h78q32 0 54.5 22.5t22.5 54.5v77q0 32 -22.5 54.5t-54.5 22.5h-78zM812 192q-32 0 -54.5 -22.5t-22.5 -54.5v-78q0 -32 22.5 -54.5t54.5 -22.5h77 q16 0 30.5 6t25 16.5t16.5 24.5t6 30v78q0 16 -6 30t-16.5 24.5t-25 16.5t-30.5 6h-77zM1121 192q-32 0 -54.5 -22.5t-22.5 -54.5v-78q0 -32 22.5 -54.5t54.5 -22.5h77q32 0 54.5 22.5t22.5 54.5v78q0 32 -22.5 54.5t-54.5 22.5h-77zM1430 192q-32 0 -54.5 -22.5 t-22.5 -54.5v-78q0 -32 22.5 -54.5t54.5 -22.5h77q32 0 54.5 22.5t22.5 54.5v78q0 32 -22.5 54.5t-54.5 22.5h-77zM1893 115q0 32 -22.5 54.5t-54.5 22.5h-78q-32 0 -54.5 -22.5t-22.5 -54.5v-78q0 -32 22.5 -54.5t54.5 -22.5h78q32 0 54.5 22.5t22.5 54.5v78zM578 192 q-32 0 -54.5 -22.5t-22.5 -54.5v-78q0 -32 22.5 -54.5t54.5 -22.5h3q32 0 54.5 22.5t22.5 54.5v78q0 32 -22.5 54.5t-54.5 22.5h-3z" />
<glyph unicode="*" d="M1030 972l244 -745l768 -7l-622 -448l241 -745l-638 462l-629 -460l242 743l-630 460l778 -5z" />
<glyph unicode="+" d="M1024 1024q141 0 272 -36.5t245 -103t207.5 -160t160 -207.5t103 -245t36.5 -272t-36.5 -272t-103 -245t-160 -207.5t-207.5 -160t-245 -103t-272 -36.5t-272 36.5t-245 103t-207.5 160t-160 207.5t-103 244.5t-36.5 272.5q0 141 36.5 272t103 245t160 207.5t207.5 160 t244.5 103t272.5 36.5zM1536 128h-384v384h-256v-384h-384v-256h384v-384h256v384h384v256z" />
<glyph unicode="-" d="M1027 1025q141 0 271 -36.5t243.5 -103t206.5 -159.5t159.5 -206.5t103 -243.5t36.5 -271t-36.5 -271t-103 -243.5t-159.5 -206.5t-206.5 -159.5t-243.5 -103t-271 -36.5t-271 36.5t-243.5 103t-206.5 159.5t-159.5 206.5t-103 243.5t-36.5 271t36.5 271t103 243.5 t159.5 206.5t206.5 159.5t243.5 103t271 36.5zM1536 132h-1020v-255h1020v255z" />
<glyph unicode="0" d="M1110 574h-172v456h172v-456zM813 541l-147 -84l-228 394l148 84zM573 364l-84 -148l-394 228l84 148zM456 92v-172h-456v172h456zM489 -204l84 -148l-394 -228l-84 148zM666 -445l147 -84l-227 -394l-148 84zM938 -562h172v-456h-172v456zM1234 -529l148 84l228 -394 l-148 -84zM1475 -352l84 148l394 -228l-85 -148zM1592 -80v172h456v-172h-456zM1559 216l-84 148l393 228l85 -148zM1382 457l-148 84l228 394l148 -84z" />
<glyph unicode="1" d="M1382 457l-148 84l228 394l148 -84z" />
<glyph unicode="2" d="M1559 216l-84 148l393 228l85 -148z" />
<glyph unicode="3" d="M1592 -80v172h456v-172h-456z" />
<glyph unicode="4" d="M1475 -352l84 148l394 -228l-85 -148z" />
<glyph unicode="5" d="M1234 -529l148 84l228 -394l-148 -84z" />
<glyph unicode="6" d="M938 -562h172v-456h-172v456z" />
<glyph unicode="7" d="M666 -445l147 -84l-227 -394l-148 84z" />
<glyph unicode="8" d="M489 -204l84 -148l-394 -228l-84 148z" />
<glyph unicode="9" d="M456 92v-172h-456v172h456z" />
<glyph unicode=":" d="M573 364l-84 -148l-394 228l84 148z" />
<glyph unicode=";" d="M813 541l-147 -84l-228 394l148 84z" />
<glyph unicode="&#x3c;" d="M1470 512v-1025l-892 513z" />
<glyph unicode="=" d="M1110 574h-172v456h172v-456z" />
<glyph unicode="&#x3e;" d="M1470 0l-892 -513v1025z" />
<glyph unicode="?" d="M1024 1024q141 0 272 -36.5t245 -103t207.5 -160t160 -207.5t103 -245t36.5 -272q0 -142 -36.5 -272.5t-103 -244.5t-160 -207.5t-207.5 -160t-245 -103t-272 -36.5q-142 0 -272.5 36.5t-244.5 103t-207.5 160t-160 207.5t-103 245t-36.5 272t36.5 272t103 245t160 207.5 t207.5 160t245 103t272 36.5zM1415 -798q116 60 209.5 149t158.5 202l-275 216q-39 -82 -103 -146t-145 -104zM808 -491q-90 40 -159 108t-111 157l-295 -216q66 -117 162 -208.5t216 -151.5zM1395 789l-150 -301q99 -45 173 -124.5t111 -182.5l273 211 q-66 131 -170.5 232.5t-236.5 164.5zM800 487l-161 305q-136 -64 -242 -167.5t-173 -236.5l296 -206q37 102 109.5 181t170.5 124zM1024 392q-81 0 -152.5 -31t-124.5 -84t-84 -124.5t-31 -152.5t31 -152.5t84 -124.5t124.5 -84t152.5 -31t152.5 31t124.5 84t84 124.5 t31 152.5t-31 152.5t-84 124.5t-124.5 84t-152.5 31z" />
<glyph unicode="@" d="M2051 -512q-3 -41 -21 -49q-8 -3 -19.5 0.5t-29 18t-40.5 43t-54 74.5l-417 458q-12 14 -11 31q0 14 12.5 34t48.5 44l424 347q35 33 61 48q11 6 20.5 9t16.5 -0.5t9 -15.5t-2 -34zM155 723h1734q44 -3 70 -12q11 -4 19.5 -10t11 -13.5t-2.5 -18t-21 -23.5l-902 -740 q-12 -14 -25 -20q-11 -5 -25 -3t-28 22l-908 736q-20 23 -20 41q0 7 4 14.5t15 13.5t29.5 9.5t48.5 3.5zM-3 -512q2 -41 20 -49q7 -3 19 0.5t29.5 18t41 43t54.5 74.5l417 458q11 14 11 31q-1 14 -13 34t-48 44l-424 347q-35 33 -61 48q-11 6 -20.5 9t-16.5 -0.5t-9 -15.5 t2 -34zM164 -723q-42 1 -60 19q-8 7 -11 19t2.5 30t21 42.5t44.5 56.5l493 542q15 20 38 19q10 0 22.5 -5t28 -16.5t34.5 -31.5t41 -51l165 -164q12 -10 26 -14q12 -4 26.5 -2t29.5 16l167 164q35 43 67 69q13 11 27.5 19.5t27 11.5t23.5 -1.5t19 -18.5l490 -542 q44 -46 62 -81q8 -15 11 -30t-2.5 -26t-21.5 -18t-46 -7h-1725z" />
<glyph unicode="C" d="M1022 527q-79 0 -148.5 -30t-121 -81.5t-81.5 -121t-30 -148.5t30 -148t81.5 -120.5t121 -81.5t148.5 -30t148 30t120.5 81.5t81.5 120.5t30 148t-30 148.5t-81.5 121t-120.5 81.5t-148 30zM1526 271l137 -14q31 -2 64 -12q27 -8 59 -24.5t60 -45.5q54 0 82.5 10.5 t42.5 22.5q16 14 18 33q17 -75 25 -121l13 -74l6 -47q0 -134 -33 -258t-93.5 -233.5t-146 -201t-190 -159.5t-225 -109.5t-251.5 -51.5q-13 5 -65 50l-55 48l-78 72l-107 101l-139 135q-8 12 -6 24q2 11 12 23.5t38 26.5l216 173q54 -12 112 -12q108 0 202.5 40.5t165 111 t111 165t40.5 202.5q0 65 -15 125zM1949 385q1 -4 1 -9q0 -16 -10 -30q-11 -14 -40 -24q-23 -9 -64 -9q-12 0 -25 1q-39 25 -79 44q-35 17 -76 31t-80 16l-118 23q-35 54 -81.5 97.5t-102.5 75t-119.5 48.5t-132.5 17q-117 0 -216.5 -46.5t-171.5 -127.5l-101 100 q-17 8 -19.5 24t0.5 32q4 18 14 40l81 240q94 42 196.5 64t211.5 22q153 0 294.5 -48.5t262.5 -133.5t217 -200t158 -247zM559 383l-122 118q-25 27 -36 62q-8 25 -8 58v13q2 42 31 93l46 126q-105 -68 -189.5 -159t-143.5 -200.5t-90.5 -234.5t-31.5 -260q0 -133 31.5 -256 t89.5 -231.5t140 -199.5t183 -159t218.5 -110.5t246.5 -54.5l-352 365q-16 37 -16 65v6q2 30 13 50q11 24 33 40l174 174q-61 33 -111.5 81t-86.5 107t-56 127.5t-20 142.5q0 65 15 124t42 113z" />
<glyph unicode="F" d="M475 660l130 -6q6 0 26 16l48 36q28 21 61.5 43t65.5 36t49 9.5t21.5 -17t-1.5 -28.5t-20 -25t-31 -32.5t-32 -52.5t-25 -60t-10 -56q0 -24 24 -39.5t59.5 -23.5t75 -11t70.5 -3t37 -12t-1.5 -27.5t-24.5 -31.5t-32 -24t-38.5 -23t-44 -30t-32 -27.5t-3.5 -13.5 q7 -2 11.5 -12.5t6 -28t2 -41t0.5 -49.5t-10 -42t-23 -21.5t-26 0t-19 22.5t-18.5 27.5t-29 16.5t-35.5 8t-39 2q-13 0 -17.5 -12t-1.5 -30.5t12 -40.5t21 -41t26.5 -32.5t28.5 -15.5q17 -4 33 -14q14 -8 29 -24.5t28 -43.5q20 -4 37 -4.5t30 -0.5q15 0 27 1q15 1 30 9 l30 19q16 10 34 17.5t41 7.5t54 -2.5t61 -9t54.5 -18t35.5 -28.5t5 -30t-22 -21.5t-38 -13t-43 -4.5q-43 0 -59 -9.5t-19 -43.5q-2 -17 -23.5 -30.5t-48.5 -23.5t-53 -15t-35 -5t-16 3t-16 3t-22.5 -6t-35.5 -25q-10 -15 20 -33q13 -8 35.5 -17.5t59 -20t89 -22.5t124.5 -25 q85 0 149 22.5t110 60t76.5 86.5t49.5 101t28.5 103.5t13 94.5t3.5 75v42q0 15 7.5 15.5t19 -7t26 -18t28.5 -17.5t26.5 -6.5t19.5 17.5q6 14 6 35q0 15 -3 33q-7 44 -20.5 93t-28.5 95t-20 75q-3 19 2.5 26.5t16 8t23.5 -3.5l25 -8q12 -4 21 -4.5t11 6.5q4 13 4 27 q0 27 -14 57q-22 46 -63 92t-95 90t-107.5 81t-99.5 64t-72 39q76 -12 132 -25t98.5 -26.5t74.5 -26.5l57 -24q101 -82 182 -194q34 -48 67.5 -106.5t59.5 -127.5t42.5 -148.5t18.5 -168.5q-14 -274 -116 -489q-44 -92 -111.5 -179.5t-166 -156t-232 -110.5t-308.5 -42h-82 q-272 13 -489 114q-93 43 -183 109t-162.5 163t-120 228t-55.5 303v12q0 31 7 76q10 54 24.5 114t31.5 121l33 108q15 47 25 74.5t10 23.5q0 8 6.5 29t16.5 49t23 60l28 63q14 31 27.5 57t24.5 43q13 16 24 18q10 2 20 -11.5t16 -56.5l76 -125h71z" />
<glyph unicode="I" d="M-13 648l656 366l368 -232l-749 -432zM-8 7l705 -442l314 348l-749 433zM2060 -2l-716 -431l-325 346l749 433zM273 -283v-270l749 -461l755 454l-1 277l-422 -284l-339 347l-309 -348zM2061 648l-674 366l-368 -232l749 -432z" />
<glyph unicode="L" d="M754 -125q-14 -9 -13 -13.5t9.5 -5t21.5 0.5t23 3q9 2 33.5 8.5t56 14t66.5 13t65 5.5q27 3 53.5 3t52.5 -3q51 -6 92.5 -17t69.5 -22.5t34 -15.5q4 -3 7 -2q2 1 3 6t-3 17q-73 36 -163 53q-38 7 -84 10q-19 1 -40 1q-27 0 -57 -2q-52 -4 -109 -16.5t-118 -37.5zM780 414 q-4 -7 -9 -15t-5 -16.5t7.5 -17.5t27.5 -17q16 -3 39 -14l52 -25q29 -13 61 -23.5t65 -10.5q37 0 72.5 10t63.5 21.5t45.5 21t18.5 9.5q4 -1 16.5 11.5t21 32t8 43.5t-21.5 45q-17 12 -50 25.5t-70.5 24.5t-73.5 18t-58 6q-33 -3 -68 -18q-30 -13 -67 -39t-75 -72zM1170 674 q-15 2 -27.5 -14t-17.5 -45q-4 -29 4 -51.5t23 -24.5q14 -2 27.5 17.5t17.5 48.5q5 29 -3.5 48t-23.5 21zM798 667q-8 -2 -11 -14t-3 -27t2 -30t5 -24t11.5 -18.5t19.5 -17t22.5 -11t19.5 -1.5t10 13t0.5 25.5t-4.5 29t-6 23.5q-2 9 -9.5 19.5t-17.5 18.5t-20.5 12.5 t-18.5 1.5zM1332 -531q0 17 2.5 28t10 17t21.5 8.5t36 2.5q14 0 23.5 -10t16.5 -25t13 -33t13.5 -34t17.5 -27.5t26 -14.5q23 -4 47 5t46.5 25t42.5 36.5t37 40.5q26 15 38 2t17 -36.5t5.5 -50t3.5 -38.5t13.5 -18.5t26 -10t34.5 -6t39 -8.5q20 -5 20 -30q0 -20 -8 -42 q-9 -25 -25 -47.5t-31 -30.5t-38 -22l-50 -32l-58 -35q-31 -18 -64 -33t-61 -31t-54.5 -27.5t-52.5 -15.5h-13q-20 0 -41 7q-21 9 -35 29q-12 17 -19 47q-3 12 -3 28q0 22 6 50zM918 -816h62q37 0 76 -3q17 1 45 16q24 13 62.5 41.5t96.5 82.5v-234q0 -11 -5.5 -24 t-16.5 -13h-359q-14 0 -19 10.5t-6 25t1 30t2 25.5q1 13 8 23q6 8 18 15t35 5zM637 -1020q39 0 78.5 19.5t64.5 49.5q8 10 7.5 26t-6.5 34.5t-15 38t-18 36.5l-17 29q-7 12 -9 17q-2 4 -19 28.5t-43 57.5l-56 72l-60 72q-28 34 -50.5 57.5t-31.5 27.5q-14 5 -30.5 -0.5 t-31.5 -16.5t-27.5 -26t-17.5 -29q-6 -14 -19.5 -14t-30.5 5.5t-34.5 12.5t-31.5 7t-29 -15.5t-25.5 -36t-13 -40t8.5 -27.5q18 -18 27 -41q8 -20 7.5 -46.5t-19.5 -58.5q-7 -8 -11.5 -23t-7.5 -29q-4 -17 -6 -36q-5 -18 -5 -31q0 -8 2 -15q5 -17 18.5 -25.5t33 -10t40 -0.5 t40 3t33.5 0q34 -2 80 -10q39 -7 96 -21.5t129 -40.5zM1260 552q1 26 2 45.5t1 32.5v25q-8 37 -24 57.5t-32 29.5q-18 11 -40 12q-29 5 -49.5 -1t-33.5 -19.5t-19.5 -32t-9.5 -38.5q-2 -17 -2 -36q0 -34 7 -75h200zM785 485l151 82q4 26 4 48v17q-3 27 -12 47t-22.5 33.5 t-28.5 21.5q-36 18 -86 18q-29 -8 -44 -29.5t-22 -44.5q-8 -27 -9 -59q11 -40 22.5 -65.5t22.5 -40.5q12 -18 24 -28zM1298 251q-23 -36 -61 -62q-32 -23 -84 -40q-40 -13 -95 -13q-16 0 -34 1q-27 1 -61 9q-29 7 -71.5 20.5t-95.5 39.5q-15 -48 -30 -86l-26 -63 q-14 -31 -26 -53q0 -4 -13 -21l-31 -43q-19 -25 -39.5 -58t-35.5 -69.5t-21 -75.5q-2 -14 -2 -27q0 -25 7 -50q1 -6 11 -18t26 -27l34 -33l38 -35l102 -90q35 -56 47.5 -91.5t14.5 -56.5q2 -25 -8 -37q-12 -10 -27 -12h-7q-10 0 -22 4q-17 6 -34 29l-119 153l-72 93 q-31 40 -45 60q-44 11 -70.5 11.5t-42.5 -4.5q-18 -5 -27 -16q2 75 12.5 128t21.5 86q13 39 29 64l20 22l50 56l65 75q36 41 66 79t50.5 68t20.5 43q6 13 2.5 51.5t-11 90.5t-18 111.5t-18.5 115t-12 100.5q-1 17 -1 31q0 23 4 38q5 23 18.5 52.5t34.5 60t49.5 59.5t64.5 52 t78.5 37t92.5 14q57 -5 101 -19.5t78 -34t58 -42.5t41 -46q39 -55 50 -121l2 -146q1 -31 1 -65.5t-1 -71.5q-1 -73 -3 -137q28 -35 66 -73l73 -69q40 -37 83 -73q34 -34 62 -81.5t49.5 -101t37 -108.5t25.5 -103t14.5 -84t4.5 -52q-53 -48 -88 -74t-58 -38q-26 -14 -42 -16 q-32 11 -49 39.5t-25 58.5q-10 34 -11 75q2 24 2 46q0 31 -4 60q-9 49 -21 86q-14 42 -34 78q-28 44 -44 75.5t-24 54.5t-10 39t-2 30q0 13 -3.5 40t-8 52t-10 41t-9.5 8z" />
<glyph unicode="M" d="M1397 524q-31 0 -52.5 -21.5t-21.5 -52.5v-73q0 -31 21.5 -52.5t52.5 -21.5t52.5 21.5t21.5 52.5v73q0 31 -21.5 52.5t-52.5 21.5zM586 524q-31 0 -52.5 -21.5t-21.5 -52.5v-73q0 -31 21.5 -52.5t52.5 -21.5t52.5 21.5t21.5 52.5v73q0 31 -21.5 52.5t-52.5 21.5z M1164 745h-115q-84 -128 -132 -234t-72 -184q-29 -92 -37 -165l-3 -225q-1 -29 12 -44.5t28 -22.5q18 -9 40 -9h134q23 -1 41 -8q16 -7 29 -21t13 -41l-2 -223h-297q-81 0 -135 12.5t-88 27.5q-40 18 -63 41q-12 27 -26.5 40.5t-26.5 18.5q-14 6 -28 5q-18 -1 -31 -8 q-11 -6 -19 -19t-3 -37q34 -51 92 -88q25 -16 57 -30t72.5 -24t89.5 -13q21 -2 43 -2q32 0 67 3l296 -1l-3 -295h81l-2 293h145q39 0 75.5 10.5t69 26.5t60 34.5t47.5 35.5t33 29l14 14q7 7 12.5 22.5t-9.5 39.5q-6 8 -17 12q-9 3 -22.5 2t-32.5 -12q-28 -45 -78 -78 q-21 -14 -49.5 -26.5t-65.5 -21.5t-82 -13q-20 -2 -42 -2q-27 0 -58 3v297q-3 28 -25 43t-48 22q-30 8 -68 9l-80 -5l-70 69q-5 24 -5 50.5t2 49.5q2 26 6 52q24 117 63 227q16 47 37.5 96.5t47.5 97.5t58 91.5t70 77.5zM1164 745h749q26 0 39.5 -13t20.5 -29q8 -18 9 -41 v-1391q1 -6 1 -12q0 -19 -8 -31q-10 -15 -24 -22q-16 -8 -38 -9h-741q9 -46 27 -80q8 -15 18.5 -28.5t25 -23t32 -14t39.5 -1.5q12 -7 17 -18q5 -9 2.5 -23t-19.5 -33q-56 0 -94.5 22.5t-63.5 56t-39 72.5t-20 72l-958 3q-20 1 -35 9q-13 7 -23.5 20.5t-10.5 39.5l-5 1400 q1 20 11 37q8 14 26 25.5t51 11.5l895 1q33 52 68 102q30 43 67.5 90t75.5 84q10 2 19 2q11 0 20 -3q14 -5 23 -21t2 -52q-27 -23 -48.5 -47.5t-39.5 -50.5l-35 -52z" />
<glyph unicode="N" d="M1023 -382q79 0 148 30t121 82t82 121.5t30 148.5t-30 149t-82 122.5t-121 83t-148 30.5q-81 0 -151 -30.5t-122 -83t-82 -122.5t-30 -149t30 -148.5t82 -121.5t122 -82t151 -30zM2026 -618q-157 21 -283.5 32t-226.5 12h-39q-76 0 -141 -6q-82 -8 -147 -25t-139.5 -51 t-159.5 -84q-85 -51 -191 -124.5t-234 -172.5l-57 33q20 161 31 290t12 227v41q0 75 -5 139q-8 81 -26 146q-17 65 -51.5 139.5t-85.5 160.5q-51 85 -124 189t-170 230l33 57q315 -42 511 -45h39q77 0 142 6q82 8 147 25q64 17 138 51.5t159 84.5q85 51 191 124.5t235 172.5 l57 -33q-21 -161 -32 -290t-12 -227v-31q0 -176 32 -295q17 -65 50 -139t84 -159q101 -171 296 -421z" />
<glyph unicode="P" horiz-adv-x="2058" d="M210 536q-22 0 -47 -8.5t-46.5 -23t-35.5 -34t-14 -41.5v-994q2 -20 18 -39q14 -17 42.5 -35.5t82.5 -32.5v1208zM1239 47q-52 0 -97.5 -19.5t-79.5 -53.5t-53.5 -79.5t-19.5 -97.5t19.5 -97.5t53.5 -79.5t79.5 -53.5t97.5 -19.5t98 19.5t80 53.5t53.5 79.5t19.5 97.5 t-19.5 97.5t-53.5 79.5t-80 53.5t-98 19.5zM1237 180q-81 0 -152 -30.5t-124.5 -84t-84 -124.5t-30.5 -152t30.5 -152t84 -124.5t124.5 -84t152 -30.5t152 30.5t124.5 84t84 124.5t30.5 152t-30.5 152t-84 124.5t-124.5 84t-152 30.5zM765 473q-36 0 -61.5 -25.5 t-25.5 -61.5t25.5 -61.5t61.5 -25.5t61.5 25.5t25.5 61.5t-25.5 61.5t-61.5 25.5zM1518 468h-22q-8 0 -11 -3t-3 -11v-21v-112q0 -29 21 -49.5t50 -20.5h321h22q8 0 11 3t3 10v22v111q0 29 -21 50t-50 21h-321zM848 674l-1 -62h1046q37 0 66.5 -14t50 -38t31.5 -56t11 -68 v-1004q0 -37 -11 -69t-31.5 -56t-50 -38t-66.5 -14h-1720q-37 0 -69 14t-56 38t-38 56t-14 69v1008q0 37 20 68t51.5 54t70 36.5t74.5 13.5l140 1l5 61q1 15 7.5 27.5t17 22.5t24 15.5t27.5 5.5h345q29 0 49.5 -21t20.5 -50z" />
<glyph unicode="Q" d="M1138 -429q-35 -17 -79 -29.5t-91.5 -21.5t-96 -13.5t-92.5 -4.5q-106 0 -202.5 27.5t-179.5 77t-151 119.5t-116 155.5t-74 183t-26 203.5q0 159 57.5 296.5t158.5 239t237.5 160t295.5 58.5q106 0 203.5 -26.5t182.5 -75t155 -117t119.5 -152t77 -180.5t27.5 -203 q0 -66 -10 -133t-28.5 -130.5t-46 -121t-62.5 -102.5l594 -557q13 -13 20 -29.5t7 -33.5t-7 -34t-20 -30l-126 -126q-13 -13 -29.5 -19.5t-34 -6.5t-34 6.5t-29.5 19.5zM789 712q-94 0 -177 -35.5t-144.5 -97t-97 -144t-35.5 -176.5t35.5 -176.5t97 -144t144.5 -97 t177 -35.5t176.5 35.5t144 97t97 144t35.5 176.5t-35.5 176.5t-97 144t-144 97t-176.5 35.5z" />
<glyph unicode="S" d="M1024 825q127 0 245.5 -33t221 -93t187 -144.5t144.5 -187.5t93 -221t33 -246t-33 -246t-93 -220.5t-144.5 -187t-187 -144.5t-221 -93t-245.5 -33q-128 0 -246 33t-220.5 93t-187 144.5t-144.5 187t-93 221t-33 245.5q0 128 33 246t93 221t144.5 187.5t187 144.5t221 93 t245.5 33zM1028 545q-89 0 -170.5 -23t-153 -65t-130 -100.5t-100.5 -130t-65 -153t-23 -170.5t23 -171t65 -153.5t100.5 -130t130 -100.5t153.5 -65t170 -23q133 0 250 50.5t204.5 138t138 204.5t50.5 250q0 88 -23 170t-65 153.5t-100.5 130t-130 100.5t-153.5 65t-171 23 zM1037 943q6 -37 -4.5 -59t-33 -35t-55 -20t-69.5 -14l-71 -11q-32 -5 -58 -0.5t-43.5 22t-24.5 54.5q-6 37 4.5 59t33.5 35t55.5 20t69.5 14q37 6 70 10q17 3 31.5 3t27.5 -3q26 -4 43.5 -21t23.5 -54zM915 25l516 320l-285 -542l-542 -299zM964 -24l-138 -267l267 151z " />
<glyph unicode="T" d="M330 983h1388q70 0 129.5 -24t103 -67.5t68.5 -103t25 -131.5v-817q0 -62 -23.5 -121t-66 -104.5t-103 -73t-133.5 -27.5h-646l-490 -497l-95 497h-157q-76 0 -136.5 25.5t-102.5 69.5t-64.5 103.5t-22.5 127.5v817q0 73 24 133.5t67.5 103t103 66t131.5 23.5z" />
<glyph unicode="V" d="M143 37l-144 129q-11 16 -11 33q0 9 2 17q9 27 38 41l1510 758q19 9 40 9q10 0 20 -2q32 -7 49 -31l80 -163q17 -23 8 -49t-37 -41l-596 -306l-415 -209l-322 -159l-56 -32h1671q33 0 56.5 -19.5t23.5 -46.5v-924q0 -27 -23.5 -46.5t-56.5 -19.5h-1756q-33 0 -56.5 19.5 t-23.5 46.5zM1381 664l277 131l-248 64l-276 -132zM828 400l277 132l-248 63l-276 -132zM351 134l280 134l-247 63l-274 -131zM1661 -232h319l-239 198h-320zM1022 -232h320l-240 198h-326zM459 -232h324l-240 198h-316z" />
<glyph unicode="W" d="M1361 713q63 -32 119 -49.5t98 -25.5q49 -10 90 -11q21 -3 46 -1.5t51.5 5t52.5 8.5t50 11q56 13 114 32q35 11 50.5 10.5t20.5 -6.5q3 -3 3 -8.5t-3 -11.5l-65 -282l-46 -184q-21 -83 -35 -133q-6 -15 -17 -30q-10 -14 -26.5 -29.5t-42.5 -30.5q-71 -21 -130.5 -32 t-104.5 -16q-52 -6 -94 -7q-88 4 -155 23.5t-114 41.5q-55 26 -95 56q-8 5 -9 13.5t1 18.5q2 11 8 24l185 583q12 20 21 27.5t15 8.5q7 1 12 -5zM1112 -95q64 -49 120 -75.5t98 -38.5q49 -14 90 -16q44 -9 84 -9q24 0 47 4q61 8 107 23q54 18 98 45q35 12 50.5 11t20.5 -7 q2 -3 2.5 -8.5t-2.5 -11.5l-81 -269l-53 -178l-39 -130q-6 -15 -17 -30q-10 -13 -26.5 -29t-42.5 -30q-71 -26 -130.5 -40t-104.5 -20q-52 -8 -94 -8q-88 8 -155 30.5t-114 45.5q-55 27 -95 58q-8 5 -8.5 14t1.5 18q2 11 7 23l190 597q12 20 20.5 27.5t14.5 8.5q7 1 12 -5z M710 -727q-66 59 -123 90.5t-99 46.5q-50 18 -91 20q-28 3 -55 3q-38 0 -74 -7q-59 -11 -104 -28q-53 -19 -98 -47q-36 -12 -51 -11t-20 7q-3 3 -3 8t3 12l84 283l55 186l40 133q6 15 17 30q10 13 26.5 28.5t42.5 30.5q68 4 126.5 6.5t102.5 3.5q51 1 94 1 q78 -13 140.5 -36.5t107.5 -47.5q52 -28 91 -60q8 -5 8.5 -14t-1.5 -18q-3 -11 -7 -23l-165 -565q-12 -21 -21 -28.5t-15 -8.5h-2q-6 0 -9 5zM962 95q-67 45 -124.5 70t-100.5 36q-50 13 -91 15q-28 2 -54 2q-50 0 -92 -6q-63 -10 -108 -24q-52 -17 -91 -39 q-36 -12 -51 -11.5t-20 6.5q-3 3 -2.5 8.5t2.5 11.5l90 276l59 183l41 132q6 15 17 30q10 13 26.5 28.5t42.5 30.5q19 13 43.5 23.5t51.5 17.5t55 12t54 8q62 7 126 7q88 -9 155 -31t114 -45q55 -27 94 -58q9 -5 9 -18q0 -7 -2 -14q-3 -11 -7 -23l-189 -597q-12 -21 -21 -28 t-15 -8h-2q-6 0 -10 5z" />
<glyph unicode="[" horiz-adv-x="1927" d="M1321 271q40 -47 73.5 -101t56.5 -114t36 -124t13 -131q0 -97 -25 -187t-71 -168.5t-110 -142.5t-142.5 -110t-168.5 -71t-187 -25t-187 25t-168.5 71t-143 110t-110.5 142.5t-71 168.5t-25 187q0 146 55.5 274t151 223t224 149.5t274.5 54.5q104 0 199 -26.5t176 -77.5 l343 305h-349q-26 8 -40 20.5t-20 23.5q-8 13 -8 28v62q3 25 13.5 38.5t22.5 19.5q14 7 31 8h528q54 0 83 -21t43 -46q16 -30 18 -67v-538q-1 -18 -9 -31q-7 -12 -21 -21.5t-40 -10.5l-75 -3q-26 4 -38 15.5t-16 22.5q-5 13 -2 29v345q-101 -86 -162.5 -144.5t-95.5 -94.5 q-40 -42 -56 -67zM799 305q-105 0 -197.5 -39t-161 -107t-108.5 -159.5t-40 -196.5t40 -197t108.5 -160.5t161 -108.5t197.5 -40t196.5 40t159.5 108.5t107 160.5t39 197t-39 196.5t-107 159.5t-159.5 107t-196.5 39z" />
<glyph unicode="]" d="M1024 817q-107 0 -201 -40t-164 -109t-110.5 -162t-40.5 -200t40.5 -201t110.5 -164t164 -110.5t201 -40.5t201 40.5t164 110.5t110.5 164t40.5 201t-40.5 200t-110.5 162t-164 109t-201 40zM1124 -402l4 -217h135q19 -2 34 -9q13 -7 23.5 -20t10.5 -39v-70 q-2 -19 -9 -33q-7 -13 -20 -23t-39 -10h-139v-135q-2 -19 -9 -33q-7 -13 -20 -23t-39 -10h-68q-19 1 -34 9q-13 7 -23.5 21.5t-10.5 42.5v128h-135q-22 1 -38 9q-14 7 -23.5 21t-4.5 40v66q0 21 8 37q6 14 20 24t40 7h139v217q-131 18 -244 80t-196 156.5t-130.5 216 t-47.5 257.5q0 99 25.5 190.5t72 171t112 145t145 112t171 72t190.5 25.5t190.5 -25.5t171 -72t145 -112t112 -145t72 -171t25.5 -190.5q0 -90 -21.5 -174.5t-61 -159.5t-95 -138.5t-124 -112t-148 -81t-166.5 -44.5z" />
<glyph unicode="^" d="M1024 447l514 -893h-1028z" />
<glyph unicode="`" d="M1127 951q72 -5 129 -40q24 -15 47.5 -38.5t42 -57.5t29.5 -80t11 -106v-300q0 -86 -23.5 -145t-52.5 -97q-33 -44 -75 -71q-5 -26 -5.5 -39t0.5 -18q1 -6 3 -6q2 1 0.5 -21t1 -57t12.5 -76.5t33.5 -80t65 -67.5t107.5 -39q99 -15 184 -49t151 -72.5t111 -74t64 -53.5 q14 -18 29 -66q12 -41 26.5 -117.5t27.5 -203.5h-2046q-2 104 11 177t29 120q18 55 43 90q19 18 67.5 53.5t119 74t159 72.5t187.5 49q66 10 104.5 38t58 65t24.5 77t3.5 73t-5 54t-1.5 20q2 0 3 6q1 8 -6 57q-55 69 -84 132.5t-43 112.5q-16 57 -17 106q1 49 1 97v90 q0 48 -1 89q-1 74 9.5 130.5t29 98t42.5 70.5t49 47q59 43 135 49z" />
<glyph unicode="a" d="M816 402q50 -3 91 -29q18 -11 35.5 -27.5t33 -41t27 -58t16.5 -76.5v-216q-6 -62 -26.5 -105t-42.5 -70q-26 -32 -56 -51q-3 -18 -4 -27.5t0 -13.5q0 -4 2 -4q2 1 1 -15t1 -41t9 -55t24 -57.5t46.5 -48.5t77.5 -28q71 -11 132.5 -35.5t109 -52t79.5 -53.5t46 -39 q9 -14 20 -48q8 -29 18 -83.5t18 -146.5h-1469v14q0 66 9 113q9 52 20 86q13 40 31 65q13 13 48 39t85.5 53.5t114.5 52t135 35.5q47 7 75 27.5t42.5 46.5t18 55t2.5 52.5t-4 39t-1 14.5q1 1 2 5q0 4 -0.5 13t-3.5 28q-48 50 -73 95t-36 80q-13 40 -15 77q-1 35 -1 70v65 q-1 6 -1 13q0 27 2 51q2 53 12.5 93.5t25.5 70.5t34 50t38 34q45 31 101 36zM1278 -561q7 21 8 41.5t0 37.5t-3 27t0 10q2 -1 2 3q0 3 -1 11l-3 23q-47 42 -72 79.5t-36 66.5q-13 34 -14 64v64v152q6 44 17.5 77.5t26.5 58.5t31.5 42t33.5 28q39 26 85 30l125 -43 q41 -3 77 -24q31 -18 61.5 -57.5t45.5 -111.5v-231q-11 -51 -31 -86.5t-40 -58.5q-23 -26 -49 -42q-4 -29 -3 -34q0 -4 2 -3q1 1 0.5 -12.5t1 -34t7 -45.5t20 -47.5t39 -40t64.5 -23.5q59 -9 109.5 -29.5t90 -43.5t66.5 -44.5t38 -31.5q8 -12 19 -40q9 -25 21 -70t26 -121 l-501 4q-8 101 -15 159.5t-11 87.5q-6 34 -10 44q-6 7 -17 18t-35.5 29.5t-66.5 46.5z" />
<glyph unicode="c" d="M1536 1024q30 0 57 -11.5t46.5 -31t31 -46.5t11.5 -57v-147q0 -30 -11.5 -56.5t-31 -46.5t-46.5 -31.5t-57 -11.5t-57 11.5t-46.5 31.5t-31 46.5t-11.5 56.5v147q0 30 11.5 57t31 46.5t46.5 31t57 11.5zM512 1024q30 0 57 -11.5t46.5 -31t31 -46.5t11.5 -57v-147 q0 -30 -11.5 -56.5t-31 -46.5t-46.5 -31.5t-57 -11.5t-57 11.5t-46.5 31.5t-31 46.5t-11.5 56.5v147q0 30 11.5 57t31 46.5t46.5 31t57 11.5zM146 805h144v-76q3 -63 28 -111q10 -21 26.5 -40.5t39.5 -35t54 -24.5q29 -8 66 -8h8q60 3 108 28q20 10 39.5 26t35 39.5t25 54.5 t9.5 73v74h585l3 -76q3 -61 27 -109q10 -21 26 -40.5t39 -35t54.5 -25t72.5 -9.5q61 3 109 28q21 10 40.5 26t35 39.5t25 54.5t9.5 73v74h147q30 0 57 -11.5t46.5 -31.5t31 -47t11.5 -57v-1536q0 -30 -11.5 -57t-31 -46.5t-46.5 -31t-57 -11.5h-1756q-30 0 -57 11.5 t-46.5 31t-31 46.5t-11.5 57v1536q0 30 11.5 57t31 47t46.5 31.5t57 11.5zM146 293v-1171h1756v1171h-1756zM1387 -609q-49 -48 -113 -74.5t-132 -34.5q-30 -4 -56 -6h-24q-17 0 -35 1v122q30 -3 51 -2.5t47 3.5q48 6 87 26.5t69.5 51.5t52.5 70t34 82q-68 -51 -161 -51 q-57 0 -101.5 21t-74.5 55.5t-45.5 78.5t-15.5 91q0 52 18 102t53 89.5t86.5 64t117.5 24.5q67 0 117 -25t83 -69.5t49.5 -104t16.5 -128.5q0 -126 -34 -224.5t-90 -162.5zM679 -715v683l-134 -72l-31 121l193 78h103v-810h-131zM1236 -20q-29 0 -54 -11t-43 -30.5 t-28.5 -47t-10.5 -61.5q0 -56 35.5 -91t97.5 -35q51 0 87 18.5t54 44.5q3 5 4.5 9.5t1.5 14.5q0 87 -35.5 138t-108.5 51z" />
<glyph unicode="d" d="M1093 814v-1732q0 -34 -7.5 -54.5t-24 -32t-42 -15.5t-61.5 -4q-40 0 -66.5 3t-42 14t-22 32t-6.5 57v1732h272zM1162 746v-545h681l210 272l-216 273h-675zM957 1024q42 0 68.5 -14.5t41.5 -36t20.5 -46.5t5.5 -46q-82 2 -133 3h-32q-30 0 -50 -1q-35 -1 -52 -2 q0 21 3.5 46t17 46.5t39.5 36t71 14.5zM1162 127v-404h408l210 205l-215 204zM753 746v-546h-551l-202 279l207 266z" />
<glyph unicode="e" d="M777 -146l115 -106l-147 -22zM1215 -72l-260 -137l-126 137l98 247l639 633l281 -266zM1860 993l159 -165q14 -16 20 -32q4 -10 4 -21q0 -5 -1 -9q-2 -17 -22 -32l-123 -123l-265 259l126 132q15 14 33 19q8 3 17 3q7 0 16 -2q18 -5 36 -29zM1262 909q23 -2 41 -14 q15 -11 27 -34q10 -20 10 -54v-12q-1 -21 -11 -41q-8 -17 -25 -35.5t-49 -32.5h-958q-31 0 -52.5 -21.5t-21.5 -52.5v-1339q0 -31 21.5 -52.5t52.5 -21.5h1339q31 0 52.5 21.5t21.5 52.5v972q4 33 22.5 51t38.5 26q24 10 53 11q41 -8 62.5 -23t32.5 -29q12 -18 14 -36v-1046 q0 -46 -17.5 -86.5t-48 -71t-71 -48t-86.5 -17.5h-1487q-46 0 -86.5 17.5t-71 48t-48 71t-17.5 86.5v1487q0 46 17.5 86.5t48 71t71 48t86.5 17.5h1039z" />
<glyph unicode="f" d="M454 36v307h228v177q0 97 11.5 159.5t34.5 110.5q11 24 33 48.5t49.5 47.5t59 43t62.5 35q121 60 310 60q48 0 91.5 -7.5t86 -18.5t85.5 -24.5t89 -26.5l-80 -302q-50 29 -93.5 51.5t-93.5 22.5q-49 0 -88.5 -13.5t-60.5 -34.5q-43 -40 -43 -158v-170h376l-75 -307h-301 v-1060h-453v1060h-228z" />
<glyph unicode="g" d="M1739 -255q-6 -20 -12 -36.5t-14 -33.5l124 -305l-179 -182l-307 123q-17 -8 -35 -15l-37 -14l-127 -304h-255l-128 303q-18 5 -36.5 12t-38.5 18l-301 -124l-181 179l121 303q-17 35 -31 76l-300 127v255l300 128l15 39q7 19 16 37l-125 300l182 181l303 -121l37 15 q18 8 36 13l127 303h256l130 -303l37 -15q16 -6 33 -15l305 127l182 -182l-126 -307q11 -17 17 -34l12 -35l307 -127v-256zM1023 -382q79 0 148 30t121 82t82 121.5t30 148.5t-30 149t-82 122.5t-121 83t-148 30.5q-81 0 -151 -30.5t-122 -83t-82 -122.5t-30 -149t30 -148.5 t82 -121.5t122 -82t151 -30z" />
<glyph unicode="i" d="M1024 1024q141 0 272 -36.5t245 -103t207.5 -160t160 -207.5t103 -245t36.5 -272q0 -142 -36.5 -272.5t-103 -244.5t-160 -207.5t-207.5 -160t-245 -103t-272 -36.5q-142 0 -272.5 36.5t-244.5 103t-207.5 160t-160 207.5t-103 245t-36.5 272t36.5 272t103 245t160 207.5 t207.5 160t245 103t272 36.5zM1086 -364q-20 0 -30 8l-18 14q-16 13 -16 49q0 3 0.5 11.5t1 18t1.5 19.5t2 17q2 14 5 26l6 23l70 165q8 26 11 54q1 14 1.5 24.5t0.5 16.5q0 29 -19.5 55.5t-39.5 43.5q-41 36 -113 36q-41 0 -86 -15q-12 -3 -29 -8l-34 -11l-36 -12 q-17 -6 -29 -11l-4 -68q15 6 36 12t40 6q10 0 22 -1t23 -2.5t19.5 -4t12.5 -5.5q7 -7 15.5 -19t8.5 -29q0 -10 -1.5 -14.5t-3.5 -15.5t-5 -23l-6 -26l-71 -165q-2 -7 -3 -17.5t-2.5 -21.5t-2.5 -20.5t-2 -15.5q-3 -23 -3 -44q0 -28 15.5 -50.5t35.5 -40.5q40 -36 115 -36 q48 0 84 12q9 3 17.5 4.5t18 3t21 4t26.5 8.5l13 55q-13 -6 -20.5 -8.5t-13.5 -2.5t-13.5 0.5t-20.5 0.5zM1171 499q-35 33 -85 33q-48 0 -86 -35q-17 -17 -26 -38.5t-9 -44.5q0 -49 35 -82q18 -17 39.5 -27.5t46.5 -10.5t46.5 10.5t38.5 27.5q36 33 36 82q0 23 -9 45.5 t-27 39.5z" />
<glyph unicode="l" d="M294 -1019v960h163v206q0 119 44.5 222t121 179.5t180 120.5t220.5 44q118 0 222 -44.5t180.5 -121t121 -180t44.5 -220.5v-206h163v-960h-1460zM1376 147q0 73 -27.5 137t-75.5 111.5t-112.5 75t-137.5 27.5q-72 0 -136 -27.5t-112 -75t-75.5 -111.5t-27.5 -137v-206 h704v206z" />
<glyph unicode="m" d="M1019 1024q103 0 201.5 -26.5t185.5 -75.5t160 -117t126 -151.5t82.5 -179t29.5 -198.5q-12 -124 -99 -311q-37 -80 -94.5 -180.5t-141.5 -224t-197 -269.5t-262 -315q-144 172 -253 319t-189.5 271t-136 224.5t-91.5 179.5q-84 185 -96 306q0 103 28.5 198.5t80.5 179 t123.5 151.5t158 117t184 75.5t200.5 26.5zM1024 789q-48 0 -91 -18.5t-74.5 -50.5t-50 -74.5t-18.5 -91.5q0 -48 18.5 -91t50 -74.5t74.5 -50t91 -18.5t91 18.5t74.5 50t50 74.5t18.5 91q0 49 -18.5 91.5t-50 74.5t-74.5 50.5t-91 18.5z" />
<glyph unicode="o" d="M-23 0q44 15 76.5 34t55.5 36q26 19 46 39q56 94 122.5 166.5t138 125.5t144 89.5t139.5 60.5q158 55 320 63q162 -8 320 -63q67 -24 139.5 -60.5t143.5 -89.5t138 -125.5t123 -166.5q19 -20 46 -39q23 -17 58.5 -36t83.5 -34q-48 -16 -83.5 -34.5t-58.5 -35.5 q-27 -19 -46 -39q-56 -95 -123 -167t-138 -125.5t-143.5 -89.5t-139.5 -60q-158 -55 -320 -63q-162 8 -320 63q-67 24 -139.5 60t-144 89.5t-138 125.5t-122.5 167q-20 20 -46 39q-23 17 -55.5 35.5t-76.5 34.5zM1022 275q-57 0 -107.5 -21.5t-88 -59t-59 -88t-21.5 -107.5 t21.5 -107.5t59 -88t88 -59t107.5 -21.5t107 21.5t87.5 59t59.5 88t22 107.5t-22 107.5t-59.5 88t-87.5 59t-107 21.5zM1028 143q29 0 54.5 -11t44.5 -30t30 -44.5t11 -54.5t-11 -54.5t-30 -44.5t-44.5 -30t-54.5 -11t-54.5 11t-44.5 30t-30 44.5t-11 54.5t11 54.5t30 44.5 t44.5 30t54.5 11z" />
<glyph unicode="s" d="M789 737h1207q28 0 47.5 -19.5t19.5 -47.5v-871q0 -28 -19.5 -47.5t-47.5 -19.5h-1207q-28 0 -47.5 19.5t-19.5 47.5v871q0 28 19.5 47.5t47.5 19.5zM517 469h14q42 0 66 -16q28 -19 41 -43q15 -28 17 -66l-4 -474q-1 -51 -21 -78.5t-44 -40.5q-28 -15 -65 -17h-205 q-39 0 -68.5 -8.5t-51 -22t-36.5 -31.5t-24 -36q-23 -43 -25 -97q5 -29 -3.5 -44t-19.5 -22q-13 -8 -32 -9q-27 -4 -41 5.5t-21 22.5q-8 15 -9 35v419q6 25 16 48t20 40q11 20 23 37l142 264q13 51 35.5 77.5t44.5 39.5q26 15 54 17q13 -2 39 -2q22 -1 60 -0.5t98 2.5z M385 -331q42 0 79 -16t64.5 -43.5t43.5 -64.5t16 -79t-16 -79t-43.5 -64.5t-64.5 -43.5t-79 -16t-79 16t-64.5 43.5t-43.5 64.5t-16 79t16 79t43.5 64.5t64.5 43.5t79 16zM655 -335h805q23 -31 35.5 -56t18.5 -43q7 -21 8 -37h-800q-26 18 -39.5 41.5t-19.5 44.5 q-7 25 -8 50zM1793 -335q41 0 77.5 -15.5t63.5 -42.5t42.5 -63.5t15.5 -77.5t-15.5 -77.5t-42.5 -63.5t-63.5 -42.5t-77.5 -15.5t-77.5 15.5t-63.5 42.5t-42.5 63.5t-15.5 77.5t15.5 77.5t42.5 63.5t63.5 42.5t77.5 15.5z" />
<glyph unicode="t" d="M-8 -390q107 -43 182.5 -66t124.5 -34q57 -12 95 -14q42 -12 80 -12q3 -1 6 -1q35 0 67 7q34 7 63.5 20.5t53.5 28.5q57 36 103 91q14 20 13.5 34.5t-6.5 24.5q-7 11 -20 20q-91 28 -158.5 53t-116 46.5t-80.5 40t-51 33.5q-46 35 -43 61q-2 17 8 25.5t21 10.5q13 3 31 0 q26 23 35 38.5t9 25.5q0 11 -9 19q-20 17 -24 27.5t-1 15.5q4 6 15 8q41 -3 70 -6l46 -5q21 -3 34 -6q11 4 12 8.5t-1 9.5q-3 5 -9 11q-10 7 -22 18l-21 21q-10 11 -15 20t-2 12q5 14 19.5 16.5t28.5 0.5q17 -3 36 -10q13 3 9 14q-2 5 -7 11q-22 13 -29.5 25t-7.5 20 q0 10 7 18q16 10 37 8t44 -13.5t47.5 -29t47.5 -37.5q54 -48 110 -114q14 -19 21.5 -21.5t12.5 2.5t7 17q27 117 57.5 207.5t62.5 159t63.5 117t60.5 81.5q68 77 135 98q28 -6 45.5 -5.5t27.5 3.5q11 4 17 10q24 10 40 12q9 1 15.5 1t11.5 -1q11 -2 19 -8q8 -12 16.5 -15.5 t15.5 -2.5q8 1 15 6q17 7 29 9.5t20 1.5t12 -3.5t6 -6.5q4 -10 -2 -25q-36 -35 -60 -53.5t-39 -27.5q-18 -11 -28 -12q-12 -1 -17.5 -6.5t-4.5 -11.5t7 -11.5t17 -6.5q73 -7 129 -24.5t97.5 -41.5t70 -52.5t46.5 -56.5q43 -67 49 -148q4 -13 10.5 -19.5t14 -8.5t16 -0.5 t16.5 4.5q18 8 39 27q42 26 68 40.5t42 22.5q18 9 28 11q12 6 17.5 2.5t7.5 -9.5q2 -8 1 -19q-30 -52 -58.5 -86t-51.5 -54q-26 -24 -51 -36q-20 -23 -19 -33t10 -14q11 -4 31 -3q26 5 44.5 11.5t31.5 11.5q15 6 25 11q31 15 42 12q12 -3 12 -15q0 -11 -9 -29 q-67 -44 -108.5 -67t-65.5 -34q-28 -12 -41 -14q-10 -2 -15.5 -7t-7.5 -10q-3 -6 -3 -13q-5 -142 -50.5 -250t-117 -187.5t-161.5 -134.5t-183 -90q-219 -84 -494 -94q-40 -3 -78 -3q-50 0 -98 5q-84 11 -159 33.5t-139.5 53.5t-117.5 65q-125 78 -222 184q-23 25 -29 36 q-3 7 -3 12q0 3 2 5q4 5 17 3z" />
<glyph unicode="u" d="M297 -1022v959h1079v524q0 72 -27.5 135.5t-75 111.5t-112 75.5t-138.5 27.5q-72 0 -135.5 -27.5t-111 -75.5t-75 -111.5t-27.5 -135.5h-216q0 117 44.5 220t121 179.5t179.5 121t220 44.5q119 0 222 -44.5t179.5 -121t120.5 -179.5t44 -220h2v-524h163v-959h-1457z" />
<glyph unicode="v" d="M510 447h1028l-514 -893z" />
<glyph unicode="w" d="M960 925q-2 26 9 39t24 20q15 7 35 9q21 -1 36 -8q13 -6 22.5 -19.5t5.5 -38.5v-67q180 -5 316.5 -45.5t237.5 -103.5t170.5 -142.5t114.5 -161.5q106 -193 120 -434v-4q-17 39 -40.5 68t-50.5 51t-56 36.5t-56 24.5q-64 23 -135 26q-82 -2 -152 -25q-30 -10 -60 -25 t-56.5 -37t-47.5 -52.5t-32 -70.5q-10 39 -30 69t-46 52.5t-55.5 37.5t-58.5 25q-69 23 -150 26q-16 1 -30 1q-35 0 -65 -5q-42 -7 -76 -20.5t-60.5 -32.5t-46.5 -39q-47 -48 -72 -110q-6 39 -24 69t-43 52.5t-55.5 37.5t-60.5 25q-71 23 -158 26h-17q-36 0 -67 -7 q-39 -8 -71.5 -22.5t-58.5 -34t-46 -40.5q-48 -48 -77 -112q27 170 83 299t128.5 224t156.5 159.5t168 106.5q196 98 427 108v65zM958 102h133v-825q0 -51 -11.5 -89t-31 -66.5t-44 -48t-49.5 -32.5q-60 -30 -136 -34h-8q-46 0 -83 10q-39 11 -68 30t-48.5 43.5t-32.5 50.5 q-30 61 -34 138q2 26 13 39.5t25 20.5q16 8 35 9q19 -1 34 -9q13 -7 23 -21.5t9 -40.5t4 -45.5t14.5 -34t22 -24.5t25.5 -16q31 -15 71 -17q51 2 79 23t41 47q15 30 17 67v825z" />
<glyph unicode="x" d="M1024 1024q141 0 272 -36.5t244.5 -103.5t207 -160.5t160.5 -207t103.5 -244.5t36.5 -272t-36.5 -272t-103.5 -244.5t-160.5 -207t-207 -160.5t-244.5 -103.5t-272 -36.5t-272 36.5t-244.5 103.5t-207 160.5t-160.5 207t-103.5 244.5t-36.5 272t36.5 272t103.5 244.5 t160.5 207t207 160.5t244.5 103.5t272 36.5zM1205 0l325 325l-181 181l-325 -325l-325 325l-181 -181l325 -325l-325 -325l181 -182l325 326l325 -326l181 182z" />
<glyph unicode="&#xa9;" d="M222 287q-88 99 -124 202q-15 44 -20.5 93t7 101t46.5 104t98 102q85 67 177 102q39 15 83.5 24.5t91.5 8t96.5 -16t97.5 -48.5l1094 -1163q67 -83 91 -186q10 -44 11 -97t-13 -113t-46.5 -127.5t-90.5 -139.5q-84 -72 -179 -112q-41 -17 -88 -29.5t-98.5 -15t-106.5 7.5 t-111 39l-891 838q-22 18 -36 42q-12 20 -19 47t4 59q22 18 47 25q21 6 48.5 1.5t56.5 -33.5l796 -773q77 -63 157 -88q34 -11 72.5 -14.5t78 6t80 34.5t78.5 72q52 52 79 118q12 28 19.5 62t6.5 72.5t-12 82t-36 90.5l-1040 1115q-59 48 -122 65q-27 7 -57.5 8t-63 -8 t-66 -31.5t-66.5 -61.5q-57 -46 -86 -97q-12 -22 -19.5 -47.5t-5 -53t16 -57t44.5 -59.5l691 -677q38 -53 83 -81q19 -12 41.5 -20t47.5 -7t52.5 12.5t56.5 37.5q23 26 27 62q3 30 -14 74.5t-74 101.5l-438 434q-26 25 -34.5 45t-7.5 35.5t7 26t11 17.5q21 15 43 20 q19 5 42 1t46 -28l149 -152l115 -115l84 -84l59 -58q56 -54 72 -65q46 -38 71.5 -75t35.5 -73t7 -69.5t-13 -62.5q-24 -69 -85 -131q-45 -41 -89 -62.5t-84.5 -29t-77.5 -3t-69 15.5q-75 26 -139 85z" />
<glyph unicode="&#xad;" d="M1027 1025q141 0 271 -36.5t243.5 -103t206.5 -159.5t159.5 -206.5t103 -243.5t36.5 -271t-36.5 -271t-103 -243.5t-159.5 -206.5t-206.5 -159.5t-243.5 -103t-271 -36.5t-271 36.5t-243.5 103t-206.5 159.5t-159.5 206.5t-103 243.5t-36.5 271t36.5 271t103 243.5 t159.5 206.5t206.5 159.5t243.5 103t271 36.5zM1536 132h-1020v-255h1020v255z" />
<glyph unicode="&#xb1;" d="M1088 18q12 28 16 57.5t-1.5 59t-19.5 56.5t-36 50l-71 71q-29 29 -66 43.5t-75.5 14.5t-75.5 -14.5t-67 -43.5l-383 -383q-29 -30 -43.5 -66.5t-14.5 -75t14.5 -75.5t43.5 -67l90 -96q56 -60 120 -59t150 78l123 142l145 -139l-203 -209q-44 -45 -99 -67t-113 -22 t-113.5 22.5t-99.5 66.5l-213 212q-44 44 -66 99.5t-22 113.5t22 113.5t66 99.5l526 525q44 44 99 66t113 22t113.5 -22t99.5 -66l212 -213q44 -44 66 -99t22 -113t-22 -113.5t-66 -99.5zM1011 38q-4 -23 -10 -40.5t-2.5 -36t22 -42t64.5 -57.5l59 -95q29 -30 66 -45 t75.5 -15t75.5 15t66 45l346 358q29 30 43.5 67t14.5 75t-14.5 75t-43.5 66l-71 71q-29 29 -66.5 44.5t-76.5 15.5t-75.5 -14.5t-64.5 -45.5l-63 -69l-141 135l60 62l21 23l19 18l12 14q4 4 3 4q44 44 99.5 66t113 22t113 -22t99.5 -66l213 -212q31 -44 47.5 -85.5 t22.5 -79.5t3 -72t-10 -63q-18 -68 -63 -125l-476 -475q-44 -44 -99 -66.5t-113 -22.5t-113.5 22.5t-99.5 66.5l-212 212q-44 44 -66 99.5t-22 113.5t22 113t66 99z" />
<glyph unicode="&#xbc;" d="M1025 609q143 422 526 422q206 0 348 -121q144 -121 144 -293q0 -117 -82.5 -274.5t-241.5 -343.5l-75 -87q-266 -312 -421.5 -543.5t-197.5 -382.5q-92 311 -625 928l-41 48l-30 35q-161 184 -242.5 343t-81.5 277q0 173 142 293q143 121 352 121q377 0 526 -422z" />
<glyph unicode="&#xbd;" d="M1393 192h-277v277h-184v-277h-277v-184h277v-277h184v277h277v184zM1025 609q143 422 526 422q206 0 348 -121q144 -121 144 -293q0 -117 -82.5 -274.5t-241.5 -343.5l-75 -87q-266 -312 -421.5 -543.5t-197.5 -382.5q-92 311 -625 928l-41 48l-30 35 q-161 184 -242.5 343t-81.5 277q0 173 142 293q143 121 352 121q377 0 526 -422z" />
<glyph unicode="&#xbe;" d="M1393 196h-734v-183h734v183zM1025 609q143 422 526 422q206 0 348 -121q144 -121 144 -293q0 -117 -82.5 -274.5t-241.5 -343.5l-75 -87q-266 -312 -421.5 -543.5t-197.5 -382.5q-92 311 -625 928l-41 48l-30 35q-161 184 -242.5 343t-81.5 277q0 173 142 293 q143 121 352 121q377 0 526 -422z" />
<glyph unicode="&#xd8;" d="M1024 -1024q-141 0 -271.5 37t-244 104t-206.5 161t-159.5 208t-103 244.5t-36.5 271.5t36.5 272t103 244.5t159.5 206.5t206.5 159.5t244 103t271.5 36.5t271.5 -36.5t244 -103t206.5 -159.5t159.5 -206.5t103 -244.5t36.5 -272t-36.5 -271.5t-103 -244.5t-159.5 -208 t-206.5 -161t-244 -104t-271.5 -37zM1024 733q-101 0 -194 -26t-174 -73.5t-148 -114.5t-114.5 -148t-73.5 -174.5t-26 -194.5t26 -194.5t73.5 -175t114.5 -149t148 -115.5t174 -74.5t194 -26.5t194 26.5t174 74.5t148 115.5t114.5 149t73.5 175t26 194.5t-26 194.5 t-73.5 174.5t-114.5 148t-148 114.5t-174 73.5t-194 26zM1452 -165h-437v252h437q25 0 48.5 -9t41.5 -25t28.5 -39t10.5 -51q0 -26 -10 -49.5t-27.5 -41t-41 -27.5t-50.5 -10zM977 -168q-45 18 -69 39t-35 39t-12.5 31t-1.5 16v549q0 26 9.5 49.5t26 41t40 28t50.5 10.5 t50.5 -10.5t40 -28t26 -41t9.5 -49.5v-670z" />
<glyph unicode="&#xf8;" d="M1022 -1026q-141 0 -271.5 36.5t-244.5 103t-207.5 160t-160.5 207t-103.5 244.5t-36.5 273t36.5 273t103.5 244.5t160.5 207t207.5 160t244.5 103t271.5 36.5t272.5 -36.5t245.5 -103t207.5 -160t160.5 -207.5t103.5 -245t36.5 -272q0 -142 -36.5 -272.5t-103.5 -244.5 t-160.5 -207.5t-207.5 -160t-245.5 -103t-272.5 -36.5zM1022 664q-91 0 -172.5 -22.5t-154.5 -64.5l908 -907q42 73 64.5 155t22.5 173q0 138 -52.5 259t-143 211.5t-212.5 143t-260 52.5zM443 325q-42 -73 -64.5 -155t-22.5 -172q0 -138 52.5 -259.5t143 -212.5t212 -143.5 t258.5 -52.5q91 0 173.5 23t155.5 65z" />
<glyph unicode="&#x192;" d="M1519 685q140 0 269.5 29.5t243.5 83.5q13 -149 15 -306q3 -158 1 -319l-4 -323q-2 -162 6 -321q-87 -43 -169.5 -76.5t-166.5 -54t-172 -27.5t-186 3q-78 8 -150 31.5t-141.5 54.5t-137 66t-136 65t-139 51t-145.5 24.5t-156.5 -14.5t-170.5 -65v-606h-182v1970 q118 50 225.5 65t206.5 5.5t191.5 -38t181.5 -66t176 -78.5t175 -75t178.5 -56.5t186.5 -22.5z" />
<glyph unicode="&#x2c6;" d="M-1 1q0 142 36.5 273t103.5 245t160.5 207.5t207.5 160t244.5 103t272.5 36.5q141 0 272 -36.5t245 -103t207.5 -160t160.5 -207.5t103.5 -245t36.5 -273q0 -141 -36.5 -272t-103.5 -245t-160.5 -207.5t-207.5 -160.5t-245 -103.5t-272 -36.5t-272 36.5t-245 103.5 t-207.5 160.5t-160.5 207.5t-103.5 244.5t-36.5 272.5zM1024 513l-510 -511h381v-514h256v514h385z" />
<glyph unicode="&#x2c7;" d="M2049 0q0 -141 -36.5 -272t-103 -245t-160 -207.5t-207.5 -160t-245 -103t-272 -36.5t-272 36.5t-245 103t-207.5 160t-160 207.5t-103 244.5t-36.5 272.5q0 141 36.5 272t103 245t160 207.5t207.5 160t244.5 103t272.5 36.5q141 0 272 -36.5t245 -103t207.5 -160 t160 -207.5t103 -245t36.5 -272zM1025 -512l510 511h-382v513h-256v-513h-384z" />
<glyph unicode="&#x3c0;" d="M2048 256l-512 -500l-512 384l-512 -384l-512 500l1025 768zM1792 256v-1024v-256h-1536v256v1024l256 -500v-524h1024v524z" />
<glyph unicode="&#x2000;" horiz-adv-x="517" />
<glyph unicode="&#x2001;" horiz-adv-x="1034" />
<glyph unicode="&#x2002;" horiz-adv-x="517" />
<glyph unicode="&#x2003;" horiz-adv-x="1034" />
<glyph unicode="&#x2004;" horiz-adv-x="344" />
<glyph unicode="&#x2005;" horiz-adv-x="258" />
<glyph unicode="&#x2006;" horiz-adv-x="172" />
<glyph unicode="&#x2007;" horiz-adv-x="172" />
<glyph unicode="&#x2008;" horiz-adv-x="129" />
<glyph unicode="&#x2009;" horiz-adv-x="206" />
<glyph unicode="&#x200a;" horiz-adv-x="57" />
<glyph unicode="&#x2010;" d="M1027 1025q141 0 271 -36.5t243.5 -103t206.5 -159.5t159.5 -206.5t103 -243.5t36.5 -271t-36.5 -271t-103 -243.5t-159.5 -206.5t-206.5 -159.5t-243.5 -103t-271 -36.5t-271 36.5t-243.5 103t-206.5 159.5t-159.5 206.5t-103 243.5t-36.5 271t36.5 271t103 243.5 t159.5 206.5t206.5 159.5t243.5 103t271 36.5zM1536 132h-1020v-255h1020v255z" />
<glyph unicode="&#x2011;" d="M1027 1025q141 0 271 -36.5t243.5 -103t206.5 -159.5t159.5 -206.5t103 -243.5t36.5 -271t-36.5 -271t-103 -243.5t-159.5 -206.5t-206.5 -159.5t-243.5 -103t-271 -36.5t-271 36.5t-243.5 103t-206.5 159.5t-159.5 206.5t-103 243.5t-36.5 271t36.5 271t103 243.5 t159.5 206.5t206.5 159.5t243.5 103t271 36.5zM1536 132h-1020v-255h1020v255z" />
<glyph unicode="&#x2012;" d="M1027 1025q141 0 271 -36.5t243.5 -103t206.5 -159.5t159.5 -206.5t103 -243.5t36.5 -271t-36.5 -271t-103 -243.5t-159.5 -206.5t-206.5 -159.5t-243.5 -103t-271 -36.5t-271 36.5t-243.5 103t-206.5 159.5t-159.5 206.5t-103 243.5t-36.5 271t36.5 271t103 243.5 t159.5 206.5t206.5 159.5t243.5 103t271 36.5zM1536 132h-1020v-255h1020v255z" />
<glyph unicode="&#x2013;" horiz-adv-x="1032" d="M519 1025q71 0 136 -36.5t122 -103t104 -159.5t80 -206.5t51.5 -243.5t18.5 -271t-18.5 -271t-51.5 -243.5t-80 -206.5t-104 -159.5t-122 -103t-136 -36.5t-136 36.5t-122 103t-104 159.5t-80 206.5t-51.5 243.5t-18.5 271t18.5 271t51.5 243.5t80 206.5t104 159.5 t122 103t136 36.5zM774 132h-512v-255h512v255z" />
<glyph unicode="&#x2014;" horiz-adv-x="2056" d="M1031 1025q142 0 272.5 -36.5t244 -103t207 -159.5t160.5 -206.5t103.5 -243.5t36.5 -271t-36.5 -271t-103.5 -243.5t-160.5 -206.5t-207 -159.5t-244 -103t-272.5 -36.5t-272.5 36.5t-244 103t-207 159.5t-160.5 206.5t-103.5 243.5t-36.5 271t36.5 271t103.5 243.5 t160.5 206.5t207 159.5t244 103t272.5 36.5zM1542 132h-1024v-255h1024v255z" />
<glyph unicode="&#x2021;" d="M512 731h-439q-30 0 -51.5 21.5t-21.5 52.5q0 30 21.5 51.5t51.5 21.5h439v-147zM1317 731h648q31 0 52.5 21.5t21.5 52.5q0 30 -21.5 51.5t-52.5 21.5h-648v-147zM1243 951v-293q0 -30 -21 -51.5t-52 -21.5h-512q-30 0 -51.5 21.5t-21.5 51.5v293q0 30 21.5 51.5 t51.5 21.5h512q31 0 52 -21.5t21 -51.5zM1024 -73h941q31 0 52.5 21.5t21.5 51.5t-21.5 51.5t-52.5 21.5h-941v-146zM219 -73h-146q-30 0 -51.5 21.5t-21.5 51.5t21.5 51.5t51.5 21.5h146v-146zM951 146v-292q0 -31 -21.5 -52t-51.5 -21h-512q-31 0 -52 21t-21 52v292 q0 31 21 52t52 21h512q30 0 51.5 -21t21.5 -52zM1609 -878h356q31 0 52.5 21.5t21.5 51.5q0 31 -21.5 52.5t-52.5 21.5h-356v-147zM805 -878h-732q-30 0 -51.5 21.5t-21.5 51.5q0 31 21.5 52.5t51.5 21.5h732v-147zM1536 -658v-293q0 -30 -21.5 -51.5t-51.5 -21.5h-512 q-31 0 -52 21.5t-21 51.5v293q0 30 21 51.5t52 21.5h512q30 0 51.5 -21.5t21.5 -51.5z" />
<glyph unicode="&#x2022;" d="M0 -1q0 142 36.5 273t103.5 245t160.5 207.5t207.5 160t244.5 103t272.5 36.5q141 0 272 -36.5t245 -103t207.5 -160t160.5 -207.5t103.5 -245t36.5 -273q0 -141 -36.5 -272t-103.5 -245t-160.5 -207.5t-207.5 -160.5t-245 -103.5t-272 -36.5t-272 36.5t-245 103.5 t-207.5 160.5t-160.5 207.5t-103.5 244.5t-36.5 272.5z" />
<glyph unicode="&#x202f;" horiz-adv-x="206" />
<glyph unicode="&#x2039;" d="M1024 -1024q-142 0 -273 36.5t-244.5 103.5t-207 160.5t-160 207t-103 244.5t-36.5 272t36.5 272t103 245t160 207.5t207.5 160.5t244.5 103.5t272.5 36.5q141 0 272 -36.5t245 -103.5t207.5 -160.5t160 -207.5t103 -245t36.5 -272t-36.5 -272t-103 -244.5t-160 -207 t-207 -160.5t-244.5 -103.5t-273 -36.5zM512 0l511 -509v382h513v255h-513v385z" />
<glyph unicode="&#x203a;" d="M1025 513v-385h-513v-255h513v-382l511 509zM1024 -1024q-142 0 -273 36.5t-244.5 103.5t-207 160.5t-160 207t-103 244.5t-36.5 272t36.5 272t103 245t160 207.5t207.5 160.5t245 103.5t272 36.5t272 -36.5t245 -103.5t207.5 -160.5t160 -207.5t103 -245t36.5 -272 t-36.5 -272t-103 -244.5t-160 -207t-207 -160.5t-244.5 -103.5t-273 -36.5z" />
<glyph unicode="&#x205f;" horiz-adv-x="258" />
<glyph unicode="&#x2206;" d="M1025 893l1026 -1785h-2054z" />
<glyph unicode="&#x221a;" d="M1024 1022q141 0 272 -36.5t245 -103.5t207.5 -160.5t160.5 -207.5t103.5 -245.5t36.5 -272.5t-36.5 -272t-103 -245t-160 -207.5t-207.5 -160.5t-245 -103.5t-273 -36.5t-273 36.5t-245 103.5t-207.5 160.5t-160 207.5t-103 245t-36.5 272q0 142 36.5 273t103.5 245 t160.5 207.5t207.5 160.5t244.5 103.5t272.5 36.5zM1561 415l-222 128l-405 -740l-267 251l-158 -267l489 -348z" />
<glyph unicode="&#x221e;" d="M1611 -498q-95 0 -177 26t-154.5 69.5t-135.5 99.5t-120 115q-60 -60 -123.5 -116t-134.5 -99t-151 -69t-174 -26q-102 0 -184 45t-140 116.5t-89 160t-31 176.5q0 97 38.5 183t102.5 150t147.5 101t173.5 37q85 0 162 -28.5t147 -73.5t134 -101l122 -112l110 101 q55 50 117 93q73 51 156.5 86t180.5 35q62 0 121 -17.5t111 -49t95 -76t73.5 -98.5t47 -115.5t15.5 -127.5q-1 -56 -15.5 -114t-41 -112t-65 -101t-87 -82t-107 -55.5t-124.5 -20.5zM1581 208q-49 0 -100.5 -21.5t-102.5 -54.5q-50 -32 -98 -72l-88 -76l78 -78 q40 -38 84 -72q51 -37 105.5 -59.5t116.5 -22.5q44 0 84.5 16t72 45.5t51 69.5t21.5 88q1 36 -12.5 77.5t-41.5 77t-70.5 59t-99.5 23.5zM796 35q-36 31 -76.5 62t-82.5 55.5t-84.5 40t-83.5 15.5q-57 0 -99 -22.5t-70.5 -57t-42.5 -76.5t-14 -82q0 -45 19 -85t50.5 -69.5 t73 -46.5t85.5 -17q47 0 90 13.5t83 36.5t78 54t74 66l31 30q15 15 29 31q-14 13 -29 25z" />
<glyph unicode="&#x2264;" d="M80 -214q-33 1 -51 14.5t-26 28.5q-10 18 -11 40v948q0 32 13 49.5t30 25.5q18 10 43 11h68h62q37 0 91 0.5t126 1t167 1.5q33 -3 51.5 -17.5t26.5 -30.5q10 -18 11 -41l-3 -81l172 -2q54 -1 87.5 12.5t53.5 30.5q23 19 34 45q10 25 23 44q11 17 28 29.5t38 10.5h687 q48 0 84 -11.5t63 -30t45.5 -42t30.5 -47.5q28 -57 32 -130v-773q0 -33 -7.5 -58t-20 -43.5t-28.5 -31t-32 -20.5q-39 -19 -87 -22h-255q-32 0 -49 -13t-25 -29q-10 -18 -10 -41q-1 -16 -1.5 -31.5t-0.5 -29.5v-31q-2 -18 10 -36l26 -38q14 -20 26 -43t12 -53v-83 q3 -33 -2 -58t-15 -43.5t-24.5 -31t-29.5 -20.5q-36 -19 -84 -22h-89q-45 8 -77 35.5t-53 57.5q-25 35 -40 77q-13 37 -38.5 103t-62 143t-82.5 156.5t-99 144.5t-113 106t-124 41v-89q0 -32 -14.5 -48.5t-31.5 -24.5q-20 -9 -46 -10h-509zM1520 -736q0 13 1.5 20.5t4 16 t4 21t1.5 36.5q-30 14 -50 38q-17 20 -28.5 51t-0.5 75v94q3 48 22 87q8 16 20.5 31.5t31 28t43 19.5t57.5 7l175 -3q31 -1 55 6t41.5 18.5t29.5 27t20 31.5q18 38 21 86v690q0 33 -7 58t-19 44t-27 32t-31 21q-37 19 -83 22h-603q-26 -3 -43 -16.5t-27 -28.5 q-11 -18 -17 -38q-6 -29 -15.5 -47t-21 -28.5t-23.5 -14.5t-23 -4h-54q-35 0 -104 0.5t-187 1.5v-603q49 4 93.5 -8t83.5 -35.5t72.5 -55t60.5 -64.5q64 -78 113 -181l87 -193l35 -75l34 -71q16 -33 30.5 -58t23.5 -37q6 -30 21 -46t32 -24q18 -9 41 -10q29 0 50 7.5 t34.5 18.5t19.5 25t6 27z" />
<glyph unicode="&#x2265;" d="M1520 736q0 13 -6 27t-19.5 25t-34.5 18.5t-50 7.5q-23 -1 -41 -10q-17 -8 -32 -24t-21 -46q-9 -12 -23 -38l-31 -58l-34 -70l-35 -75l-87 -193q-49 -103 -113 -181q-27 -33 -60.5 -64.5t-72.5 -55t-83.5 -36t-93.5 -7.5v-603q118 1 187 2t104 0h54q11 0 23 -4 t23.5 -14.5t21 -29t15.5 -46.5q6 -21 17 -39q10 -15 27 -28t43 -16h603q46 3 83 22q16 8 31 21t27 31.5t19 44t7 58.5v690q-3 48 -21 86q-8 16 -20 31t-29.5 27t-41.5 18.5t-55 6.5l-175 -3q-33 0 -57.5 7t-43 19t-31 27.5t-20.5 32.5q-19 38 -22 87v94q-11 44 0.5 74.5 t28.5 50.5q20 23 50 39q0 24 -1.5 36.5t-4 21t-4 16t-1.5 20.5zM80 214h509q26 -1 46 -10q17 -8 31.5 -25t14.5 -48v-89q64 0 124 41t113 106t99 144.5t82.5 156.5t62 143t38.5 103q15 42 40 77q21 30 53 57.5t77 35.5h89q48 -3 84 -22q15 -8 29.5 -21t24.5 -31.5t15 -43 t2 -57.5v-83q0 -30 -12 -54q-12 -22 -26 -42l-26 -38q-12 -18 -10 -36v-31q0 -14 0.5 -30t1.5 -31q0 -24 10 -42q8 -16 25 -28.5t49 -12.5h255q48 -3 87 -22q16 -8 32 -21t28.5 -31.5t20 -43t7.5 -57.5v-773q-4 -74 -32 -131q-12 -24 -30.5 -47.5t-45.5 -42t-63 -29.5 t-84 -11h-687q-21 -2 -38 10.5t-28 29.5q-13 19 -23 44q-11 25 -34 45q-20 17 -53.5 31t-87.5 13l-172 -3l3 -81q-1 -24 -11 -42q-8 -16 -26.5 -30t-51.5 -17q-95 0 -167 0.5t-126 1t-91 1t-62 0.5h-68q-25 1 -43 11q-17 8 -30 25.5t-13 49.5v948q1 22 11 40q8 15 26 28 t51 15z" />
<glyph unicode="&#x25ca;" d="M1023 -1029l-1028 1032l1028 1027l1030 -1027z" />
<glyph unicode="&#xe000;" horiz-adv-x="1025" d="M0 1025h1025v-1025h-1025v1025z" />
</font>
</defs>
</svg>
